999
"DXF R12 Output" (www.mydxf.blogspot.com)
 0 
SECTION
 2 
HEADER
 9 
$ACADVER
 1 
AC1009
 9 
$EXTMIN
 10 
 0 
 20 
 0 
 9 
$EXTMAX
 10 
 8.5 
 20 
 11 
 0 
ENDSEC
 0 
SECTION
 2 
ENTITIES
0
LINE
8
Layer 1
10
136.684200
20
113.507000
11
165.344600
21
113.507000
0
LINE
8
Layer 1
10
182.650000
20
96.684000
11
182.570967
21
97.073586
0
LINE
8
Layer 1
10
182.570967
20
97.073586
11
182.346400
21
97.401600
0
LINE
8
Layer 1
10
114.868600
20
136.446700
11
88.333100
21
124.274500
0
LINE
8
Layer 1
10
121.565800
20
98.257000
11
121.964110
21
98.339748
0
LINE
8
Layer 1
10
121.964110
20
98.339748
11
122.296500
21
98.574300
0
LINE
8
Layer 1
10
136.684200
20
113.507000
11
136.285890
21
113.424252
0
LINE
8
Layer 1
10
136.285890
20
113.424252
11
135.953500
21
113.189700
0
LINE
8
Layer 1
10
201.318300
20
81.757000
11
200.930143
21
81.678873
0
LINE
8
Layer 1
10
200.930143
20
81.678873
11
200.612779
21
81.465700
0
LINE
8
Layer 1
10
200.612779
20
81.465700
11
200.398177
21
81.149301
0
LINE
8
Layer 1
10
200.398177
20
81.149301
11
200.318300
21
80.761500
0
LINE
8
Layer 1
10
198.906100
20
49.638500
11
209.878900
21
59.451500
0
LINE
8
Layer 1
10
182.650000
20
65.020300
11
182.725827
21
64.638338
0
LINE
8
Layer 1
10
182.725827
20
64.638338
11
182.941800
21
64.314300
0
LINE
8
Layer 1
10
212.700000
20
81.757000
11
213.082683
21
81.833120
0
LINE
8
Layer 1
10
213.082683
20
81.833120
11
213.407107
21
82.049893
0
LINE
8
Layer 1
10
213.407107
20
82.049893
11
213.623880
21
82.374317
0
LINE
8
Layer 1
10
213.623880
20
82.374317
11
213.700000
21
82.757000
0
LINE
8
Layer 1
10
115.143000
20
136.527600
11
114.868600
21
136.446700
0
LINE
8
Layer 1
10
213.700000
20
82.757000
11
213.700000
21
126.207000
0
LINE
8
Layer 1
10
197.531300
20
49.677900
11
198.210851
21
49.384324
0
LINE
8
Layer 1
10
198.210851
20
49.384324
11
198.906100
21
49.638500
0
LINE
8
Layer 1
10
182.650000
20
96.684000
11
182.650000
21
65.020300
0
LINE
8
Layer 1
10
201.318300
20
81.757000
11
212.700000
21
81.757000
0
LINE
8
Layer 1
10
87.750000
20
123.365500
11
87.750000
21
99.257000
0
LINE
8
Layer 1
10
210.065600
20
60.718100
11
200.447900
21
76.464900
0
LINE
8
Layer 1
10
180.621400
20
127.278300
11
180.992300
21
127.207000
0
LINE
8
Layer 1
10
122.296500
20
98.574300
11
135.953500
21
113.189700
0
LINE
8
Layer 1
10
180.621400
20
127.278300
11
146.498500
21
140.907700
0
LINE
8
Layer 1
10
182.941800
20
64.314300
11
197.531200
21
49.677900
0
LINE
8
Layer 1
10
146.498500
20
140.907700
11
145.985100
21
140.968900
0
LINE
8
Layer 1
10
213.700000
20
126.207000
11
213.623880
21
126.589683
0
LINE
8
Layer 1
10
213.623880
20
126.589683
11
213.407107
21
126.914107
0
LINE
8
Layer 1
10
213.407107
20
126.914107
11
213.082683
21
127.130880
0
LINE
8
Layer 1
10
213.082683
20
127.130880
11
212.700000
21
127.207000
0
LINE
8
Layer 1
10
87.750000
20
99.257000
11
87.826120
21
98.874317
0
LINE
8
Layer 1
10
87.826120
20
98.874317
11
88.042893
21
98.549893
0
LINE
8
Layer 1
10
88.042893
20
98.549893
11
88.367317
21
98.333120
0
LINE
8
Layer 1
10
88.367317
20
98.333120
11
88.750000
21
98.257000
0
LINE
8
Layer 1
10
200.301300
20
76.990700
11
200.318300
21
80.761500
0
LINE
8
Layer 1
10
88.333100
20
124.274400
11
87.908319
21
123.905423
0
LINE
8
Layer 1
10
87.908319
20
123.905423
11
87.750000
21
123.365500
0
LINE
8
Layer 1
10
88.750000
20
98.257000
11
121.565800
21
98.257000
0
LINE
8
Layer 1
10
145.985100
20
140.968900
11
115.143000
21
136.527600
0
LINE
8
Layer 1
10
166.040900
20
113.224600
11
165.344600
21
113.507000
0
LINE
8
Layer 1
10
209.878900
20
59.451500
11
210.201517
21
60.051005
0
LINE
8
Layer 1
10
210.201517
20
60.051005
11
210.065600
21
60.718100
0
LINE
8
Layer 1
10
200.301300
20
76.990700
11
200.447900
21
76.464900
0
LINE
8
Layer 1
10
212.700000
20
127.207000
11
180.992300
21
127.207000
0
LINE
8
Layer 1
10
166.041000
20
113.224600
11
182.346400
21
97.401600
 0 
ENDSEC
 0 
EOF