  0
SECTION
  2
HEADER
  9
$ACADVER
  1
AC1014
  9
$HANDSEED
  5
FFFF
  9
$INSUNITS
 70
     4
  9
$MEASUREMENT
 70
     1
  0
ENDSEC
  0
SECTION
  2
TABLES
  0
TABLE
  2
VPORT
  5
8
330
0
100
AcDbSymbolTable
 70
     4
  0
VPORT
  5
2E
330
8
100
AcDbSymbolTableRecord
100
AcDbViewportTableRecord
  2
*ACTIVE
 70
     0
 10
0.0
 20
0.0
 11
1.0
 21
1.0
 12
210.0
 22
148.5
 13
0.0
 23
0.0
 14
10.0
 24
10.0
 15
10.0
 25
10.0
 16
0.0
 26
0.0
 36
1.0
 17
0.0
 27
0.0
 37
0.0
 40
341.0
 41
1.24
 42
50.0
 43
0.0
 44
0.0
 50
0.0
 51
0.0
 71
     0
 72
   100
 73
     1
 74
     3
 75
     0
 76
     0
 77
     0
 78
     0
  0
ENDTAB
  0
TABLE
  2
LTYPE
  5
5
330
0
100
AcDbSymbolTable
 70
     1
  0
LTYPE
  5
14
330
5
100
AcDbSymbolTableRecord
100
AcDbLinetypeTableRecord
  2
BYBLOCK
 70
     0
  3

 72
    65
 73
     0
 40
0.0
  0
LTYPE
  5
15
330
5
100
AcDbSymbolTableRecord
100
AcDbLinetypeTableRecord
  2
BYLAYER
 70
     0
  3

 72
    65
 73
     0
 40
0.0
  0
LTYPE
  5
16
330
5
100
AcDbSymbolTableRecord
100
AcDbLinetypeTableRecord
  2
CONTINUOUS
 70
     0
  3
Solid line
 72
    65
 73
     0
 40
0.0
  0
ENDTAB
  0
TABLE
  2
LAYER
  5
2
100
AcDbSymbolTable
 70
1
  0
LAYER
  5
50
100
AcDbSymbolTableRecord
100
AcDbLayerTableRecord
  2
0
 70
0
  6
CONTINUOUS
  0
ENDTAB
  0
TABLE
  2
STYLE
  5
3
330
0
100
AcDbSymbolTable
 70
     1
  0
STYLE
  5
11
330
3
100
AcDbSymbolTableRecord
100
AcDbTextStyleTableRecord
  2
STANDARD
 70
     0
 40
0.0
 41
1.0
 50
0.0
 71
     0
 42
2.5
  3
txt
  4

  0
ENDTAB
  0
TABLE
  2
VIEW
  5
6
330
0
100
AcDbSymbolTable
 70
     0
  0
ENDTAB
  0
TABLE
  2
UCS
  5
7
330
0
100
AcDbSymbolTable
 70
     0
  0
ENDTAB
  0
TABLE
  2
APPID
  5
9
330
0
100
AcDbSymbolTable
 70
     2
  0
APPID
  5
12
330
9
100
AcDbSymbolTableRecord
100
AcDbRegAppTableRecord
  2
ACAD
 70
     0
  0
ENDTAB
  0
TABLE
  2
DIMSTYLE
  5
A
330
0
100
AcDbSymbolTable
 70
     1
  0
DIMSTYLE
105
27
330
A
100
AcDbSymbolTableRecord
100
AcDbDimStyleTableRecord
  2
ISO-25
 70
     0
  3

  4

  5

  6

  7

 40
1.0
 41
2.5
 42
0.625
 43
3.75
 44
1.25
 45
0.0
 46
0.0
 47
0.0
 48
0.0
140
2.5
141
2.5
142
0.0
143
0.03937007874016
144
1.0
145
0.0
146
1.0
147
0.625
 71
     0
 72
     0
 73
     0
 74
     0
 75
     0
 76
     0
 77
     1
 78
     8
170
     0
171
     3
172
     1
173
     0
174
     0
175
     0
176
     0
177
     0
178
     0
270
     2
271
     2
272
     2
273
     2
274
     3
340
11
275
     0
280
     0
281
     0
282
     0
283
     0
284
     8
285
     0
286
     0
287
     3
288
     0
  0
ENDTAB
  0
TABLE
  2
BLOCK_RECORD
  5
1
330
0
100
AcDbSymbolTable
 70
     1
  0
BLOCK_RECORD
  5
1F
330
1
100
AcDbSymbolTableRecord
100
AcDbBlockTableRecord
  2
*MODEL_SPACE
  0
BLOCK_RECORD
  5
1B
330
1
100
AcDbSymbolTableRecord
100
AcDbBlockTableRecord
  2
*PAPER_SPACE
  0
ENDTAB
  0
ENDSEC
  0
SECTION
  2
BLOCKS
  0
BLOCK
  5
20
330
1F
100
AcDbEntity
  8
0
100
AcDbBlockBegin
  2
*MODEL_SPACE
 70
     0
 10
0.0
 20
0.0
 30
0.0
  3
*MODEL_SPACE
  1

  0
ENDBLK
  5
21
330
1F
100
AcDbEntity
  8
0
100
AcDbBlockEnd
  0
BLOCK
  5
1C
330
1B
100
AcDbEntity
 67
     1
  8
0
100
AcDbBlockBegin
  2
*PAPER_SPACE
  1

  0
ENDBLK
  5
1D
330
1B
100
AcDbEntity
 67
     1
  8
0
100
AcDbBlockEnd
  0
ENDSEC
  0
SECTION
  2
ENTITIES
  0
SPLINE
  5
100
100
AcDbEntity
  8
0
 62
7
100
AcDbSpline
 70
8
 71
3
 72
8
 73
4
 74
0
 40
0
 40
0
 40
0
 40
0
 40
1
 40
1
 40
1
 40
1
 10
104.600000
 20
129.757200
 30
0.0
 10
103.609068
 20
129.757200
 30
0.0
 10
102.715709
 20
129.160277
 30
0.0
 10
102.336495
 20
128.244774
 30
0.0
  0
SPLINE
  5
101
100
AcDbEntity
  8
0
 62
7
100
AcDbSpline
 70
8
 71
3
 72
8
 73
4
 74
0
 40
0
 40
0
 40
0
 40
0
 40
1
 40
1
 40
1
 40
1
 10
102.336495
 20
128.244774
 30
0.0
 10
101.957282
 20
127.329272
 30
0.0
 10
102.166893
 20
126.275483
 30
0.0
 10
102.867588
 20
125.574788
 30
0.0
  0
SPLINE
  5
102
100
AcDbEntity
  8
0
 62
7
100
AcDbSpline
 70
8
 71
3
 72
8
 73
4
 74
0
 40
0
 40
0
 40
0
 40
0
 40
1
 40
1
 40
1
 40
1
 10
102.867588
 20
125.574788
 30
0.0
 10
103.568283
 20
124.874093
 30
0.0
 10
104.622072
 20
124.664482
 30
0.0
 10
105.537574
 20
125.043695
 30
0.0
  0
SPLINE
  5
103
100
AcDbEntity
  8
0
 62
7
100
AcDbSpline
 70
8
 71
3
 72
8
 73
4
 74
0
 40
0
 40
0
 40
0
 40
0
 40
1
 40
1
 40
1
 40
1
 10
105.537574
 20
125.043695
 30
0.0
 10
106.453077
 20
125.422909
 30
0.0
 10
107.050000
 20
126.316268
 30
0.0
 10
107.050000
 20
127.307200
 30
0.0
  0
SPLINE
  5
104
100
AcDbEntity
  8
0
 62
7
100
AcDbSpline
 70
8
 71
3
 72
8
 73
4
 74
0
 40
0
 40
0
 40
0
 40
0
 40
1
 40
1
 40
1
 40
1
 10
107.050000
 20
127.307200
 30
0.0
 10
107.050000
 20
127.956980
 30
0.0
 10
106.791876
 20
128.580147
 30
0.0
 10
106.332412
 20
129.039612
 30
0.0
  0
SPLINE
  5
105
100
AcDbEntity
  8
0
 62
7
100
AcDbSpline
 70
8
 71
3
 72
8
 73
4
 74
0
 40
0
 40
0
 40
0
 40
0
 40
1
 40
1
 40
1
 40
1
 10
106.332412
 20
129.039612
 30
0.0
 10
105.872947
 20
129.499076
 30
0.0
 10
105.249780
 20
129.757200
 30
0.0
 10
104.600000
 20
129.757200
 30
0.0
  0
SPLINE
  5
106
100
AcDbEntity
  8
0
 62
6
100
AcDbSpline
 70
8
 71
3
 72
8
 73
4
 74
0
 40
0
 40
0
 40
0
 40
0
 40
1
 40
1
 40
1
 40
1
 10
196.899990
 20
81.757200
 30
0.0
 10
195.909058
 20
81.757200
 30
0.0
 10
195.015699
 20
81.160277
 30
0.0
 10
194.636485
 20
80.244774
 30
0.0
  0
SPLINE
  5
107
100
AcDbEntity
  8
0
 62
6
100
AcDbSpline
 70
8
 71
3
 72
8
 73
4
 74
0
 40
0
 40
0
 40
0
 40
0
 40
1
 40
1
 40
1
 40
1
 10
194.636485
 20
80.244774
 30
0.0
 10
194.257272
 20
79.329272
 30
0.0
 10
194.466883
 20
78.275483
 30
0.0
 10
195.167578
 20
77.574788
 30
0.0
  0
SPLINE
  5
108
100
AcDbEntity
  8
0
 62
6
100
AcDbSpline
 70
8
 71
3
 72
8
 73
4
 74
0
 40
0
 40
0
 40
0
 40
0
 40
1
 40
1
 40
1
 40
1
 10
195.167578
 20
77.574788
 30
0.0
 10
195.868273
 20
76.874093
 30
0.0
 10
196.922062
 20
76.664482
 30
0.0
 10
197.837564
 20
77.043695
 30
0.0
  0
SPLINE
  5
109
100
AcDbEntity
  8
0
 62
6
100
AcDbSpline
 70
8
 71
3
 72
8
 73
4
 74
0
 40
0
 40
0
 40
0
 40
0
 40
1
 40
1
 40
1
 40
1
 10
197.837564
 20
77.043695
 30
0.0
 10
198.753067
 20
77.422909
 30
0.0
 10
199.349990
 20
78.316268
 30
0.0
 10
199.349990
 20
79.307200
 30
0.0
  0
SPLINE
  5
10a
100
AcDbEntity
  8
0
 62
6
100
AcDbSpline
 70
8
 71
3
 72
8
 73
4
 74
0
 40
0
 40
0
 40
0
 40
0
 40
1
 40
1
 40
1
 40
1
 10
199.349990
 20
79.307200
 30
0.0
 10
199.349990
 20
79.956980
 30
0.0
 10
199.091866
 20
80.580147
 30
0.0
 10
198.632402
 20
81.039612
 30
0.0
  0
SPLINE
  5
10b
100
AcDbEntity
  8
0
 62
6
100
AcDbSpline
 70
8
 71
3
 72
8
 73
4
 74
0
 40
0
 40
0
 40
0
 40
0
 40
1
 40
1
 40
1
 40
1
 10
198.632402
 20
81.039612
 30
0.0
 10
198.172937
 20
81.499076
 30
0.0
 10
197.549770
 20
81.757200
 30
0.0
 10
196.899990
 20
81.757200
 30
0.0
  0
LWPOLYLINE
  5
10c
100
AcDbEntity
  8
0
 62
7
100
AcDbPolyline
 90
1
 70
1
 10
104.600000
 20
129.757200
 30
0.0
  0
SPLINE
  5
10d
100
AcDbEntity
  8
0
 62
6
100
AcDbSpline
 70
8
 71
3
 72
8
 73
4
 74
0
 40
0
 40
0
 40
0
 40
0
 40
1
 40
1
 40
1
 40
1
 10
186.700000
 20
125.057198
 30
0.0
 10
185.709068
 20
125.057198
 30
0.0
 10
184.815709
 20
124.460275
 30
0.0
 10
184.436495
 20
123.544772
 30
0.0
  0
SPLINE
  5
10e
100
AcDbEntity
  8
0
 62
6
100
AcDbSpline
 70
8
 71
3
 72
8
 73
4
 74
0
 40
0
 40
0
 40
0
 40
0
 40
1
 40
1
 40
1
 40
1
 10
184.436495
 20
123.544772
 30
0.0
 10
184.057282
 20
122.629270
 30
0.0
 10
184.266893
 20
121.575481
 30
0.0
 10
184.967588
 20
120.874786
 30
0.0
  0
SPLINE
  5
10f
100
AcDbEntity
  8
0
 62
6
100
AcDbSpline
 70
8
 71
3
 72
8
 73
4
 74
0
 40
0
 40
0
 40
0
 40
0
 40
1
 40
1
 40
1
 40
1
 10
184.967588
 20
120.874786
 30
0.0
 10
185.668283
 20
120.174091
 30
0.0
 10
186.722072
 20
119.964480
 30
0.0
 10
187.637574
 20
120.343693
 30
0.0
  0
SPLINE
  5
110
100
AcDbEntity
  8
0
 62
6
100
AcDbSpline
 70
8
 71
3
 72
8
 73
4
 74
0
 40
0
 40
0
 40
0
 40
0
 40
1
 40
1
 40
1
 40
1
 10
187.637574
 20
120.343693
 30
0.0
 10
188.553077
 20
120.722907
 30
0.0
 10
189.150000
 20
121.616266
 30
0.0
 10
189.150000
 20
122.607198
 30
0.0
  0
SPLINE
  5
111
100
AcDbEntity
  8
0
 62
6
100
AcDbSpline
 70
8
 71
3
 72
8
 73
4
 74
0
 40
0
 40
0
 40
0
 40
0
 40
1
 40
1
 40
1
 40
1
 10
189.150000
 20
122.607198
 30
0.0
 10
189.150000
 20
123.256978
 30
0.0
 10
188.891876
 20
123.880145
 30
0.0
 10
188.432412
 20
124.339610
 30
0.0
  0
SPLINE
  5
112
100
AcDbEntity
  8
0
 62
6
100
AcDbSpline
 70
8
 71
3
 72
8
 73
4
 74
0
 40
0
 40
0
 40
0
 40
0
 40
1
 40
1
 40
1
 40
1
 10
188.432412
 20
124.339610
 30
0.0
 10
187.972947
 20
124.799074
 30
0.0
 10
187.349780
 20
125.057198
 30
0.0
 10
186.700000
 20
125.057198
 30
0.0
  0
LWPOLYLINE
  5
113
100
AcDbEntity
  8
0
 62
6
100
AcDbPolyline
 90
1
 70
1
 10
196.899990
 20
81.757200
 30
0.0
  0
SPLINE
  5
114
100
AcDbEntity
  8
0
 62
6
100
AcDbSpline
 70
8
 71
3
 72
8
 73
4
 74
0
 40
0
 40
0
 40
0
 40
0
 40
1
 40
1
 40
1
 40
1
 10
91.900002
 20
105.357200
 30
0.0
 10
90.546904
 20
105.357200
 30
0.0
 10
89.450002
 20
104.260298
 30
0.0
 10
89.450002
 20
102.907200
 30
0.0
  0
SPLINE
  5
115
100
AcDbEntity
  8
0
 62
6
100
AcDbSpline
 70
8
 71
3
 72
8
 73
4
 74
0
 40
0
 40
0
 40
0
 40
0
 40
1
 40
1
 40
1
 40
1
 10
89.450002
 20
102.907200
 30
0.0
 10
89.450002
 20
101.554102
 30
0.0
 10
90.546904
 20
100.457200
 30
0.0
 10
91.900002
 20
100.457200
 30
0.0
  0
SPLINE
  5
116
100
AcDbEntity
  8
0
 62
6
100
AcDbSpline
 70
8
 71
3
 72
8
 73
4
 74
0
 40
0
 40
0
 40
0
 40
0
 40
1
 40
1
 40
1
 40
1
 10
91.900002
 20
100.457200
 30
0.0
 10
93.253100
 20
100.457200
 30
0.0
 10
94.350002
 20
101.554102
 30
0.0
 10
94.350002
 20
102.907200
 30
0.0
  0
SPLINE
  5
117
100
AcDbEntity
  8
0
 62
6
100
AcDbSpline
 70
8
 71
3
 72
8
 73
4
 74
0
 40
0
 40
0
 40
0
 40
0
 40
1
 40
1
 40
1
 40
1
 10
94.350002
 20
102.907200
 30
0.0
 10
94.350002
 20
103.556980
 30
0.0
 10
94.091878
 20
104.180147
 30
0.0
 10
93.632414
 20
104.639612
 30
0.0
  0
SPLINE
  5
118
100
AcDbEntity
  8
0
 62
6
100
AcDbSpline
 70
8
 71
3
 72
8
 73
4
 74
0
 40
0
 40
0
 40
0
 40
0
 40
1
 40
1
 40
1
 40
1
 10
93.632414
 20
104.639612
 30
0.0
 10
93.172949
 20
105.099076
 30
0.0
 10
92.549782
 20
105.357200
 30
0.0
 10
91.900002
 20
105.357200
 30
0.0
  0
LWPOLYLINE
  5
119
100
AcDbEntity
  8
0
 62
6
100
AcDbPolyline
 90
1
 70
1
 10
186.700000
 20
125.057198
 30
0.0
  0
SPLINE
  5
11a
100
AcDbEntity
  8
0
 62
6
100
AcDbSpline
 70
8
 71
3
 72
8
 73
4
 74
0
 40
0
 40
0
 40
0
 40
0
 40
1
 40
1
 40
1
 40
1
 10
137.566700
 20
127.790498
 30
0.0
 10
136.575768
 20
127.790498
 30
0.0
 10
135.682409
 20
127.193575
 30
0.0
 10
135.303195
 20
126.278072
 30
0.0
  0
SPLINE
  5
11b
100
AcDbEntity
  8
0
 62
6
100
AcDbSpline
 70
8
 71
3
 72
8
 73
4
 74
0
 40
0
 40
0
 40
0
 40
0
 40
1
 40
1
 40
1
 40
1
 10
135.303195
 20
126.278072
 30
0.0
 10
134.923982
 20
125.362570
 30
0.0
 10
135.133593
 20
124.308781
 30
0.0
 10
135.834288
 20
123.608086
 30
0.0
  0
SPLINE
  5
11c
100
AcDbEntity
  8
0
 62
6
100
AcDbSpline
 70
8
 71
3
 72
8
 73
4
 74
0
 40
0
 40
0
 40
0
 40
0
 40
1
 40
1
 40
1
 40
1
 10
135.834288
 20
123.608086
 30
0.0
 10
136.534983
 20
122.907391
 30
0.0
 10
137.588772
 20
122.697780
 30
0.0
 10
138.504274
 20
123.076993
 30
0.0
  0
SPLINE
  5
11d
100
AcDbEntity
  8
0
 62
6
100
AcDbSpline
 70
8
 71
3
 72
8
 73
4
 74
0
 40
0
 40
0
 40
0
 40
0
 40
1
 40
1
 40
1
 40
1
 10
138.504274
 20
123.076993
 30
0.0
 10
139.419777
 20
123.456207
 30
0.0
 10
140.016700
 20
124.349566
 30
0.0
 10
140.016700
 20
125.340498
 30
0.0
  0
SPLINE
  5
11e
100
AcDbEntity
  8
0
 62
6
100
AcDbSpline
 70
8
 71
3
 72
8
 73
4
 74
0
 40
0
 40
0
 40
0
 40
0
 40
1
 40
1
 40
1
 40
1
 10
140.016700
 20
125.340498
 30
0.0
 10
140.016700
 20
125.990278
 30
0.0
 10
139.758576
 20
126.613445
 30
0.0
 10
139.299112
 20
127.072910
 30
0.0
  0
SPLINE
  5
11f
100
AcDbEntity
  8
0
 62
6
100
AcDbSpline
 70
8
 71
3
 72
8
 73
4
 74
0
 40
0
 40
0
 40
0
 40
0
 40
1
 40
1
 40
1
 40
1
 10
139.299112
 20
127.072910
 30
0.0
 10
138.839647
 20
127.532374
 30
0.0
 10
138.216480
 20
127.790498
 30
0.0
 10
137.566700
 20
127.790498
 30
0.0
  0
LWPOLYLINE
  5
120
100
AcDbEntity
  8
0
 62
6
100
AcDbPolyline
 90
1
 70
1
 10
91.900002
 20
105.357200
 30
0.0
  0
LWPOLYLINE
  5
121
100
AcDbEntity
  8
0
 62
6
100
AcDbPolyline
 90
1
 70
1
 10
137.566700
 20
127.790498
 30
0.0
  0
ENDSEC
  0
SECTION
  2
OBJECTS
  0
DICTIONARY
  5
C
330
0
100
AcDbDictionary
  3
ACAD_GROUP
350
D
  3
ACAD_MLINESTYLE
350
17
  0
DICTIONARY
  5
D
330
C
100
AcDbDictionary
  0
DICTIONARY
  5
1A
330
C
100
AcDbDictionary
  0
DICTIONARY
  5
17
330
C
100
AcDbDictionary
  3
STANDARD
350
18
  0
DICTIONARY
  5
19
330
C
100
AcDbDictionary
  0
ENDSEC
  0
EOF
