  0
SECTION
  2
HEADER
  9
$ACADVER
  1
AC1014
  9
$HANDSEED
  5
FFFF
  9
$INSUNITS
 70
     4
  9
$MEASUREMENT
 70
     1
  0
ENDSEC
  0
SECTION
  2
TABLES
  0
TABLE
  2
VPORT
  5
8
330
0
100
AcDbSymbolTable
 70
     4
  0
VPORT
  5
2E
330
8
100
AcDbSymbolTableRecord
100
AcDbViewportTableRecord
  2
*ACTIVE
 70
     0
 10
0.0
 20
0.0
 11
1.0
 21
1.0
 12
210.0
 22
148.5
 13
0.0
 23
0.0
 14
10.0
 24
10.0
 15
10.0
 25
10.0
 16
0.0
 26
0.0
 36
1.0
 17
0.0
 27
0.0
 37
0.0
 40
341.0
 41
1.24
 42
50.0
 43
0.0
 44
0.0
 50
0.0
 51
0.0
 71
     0
 72
   100
 73
     1
 74
     3
 75
     0
 76
     0
 77
     0
 78
     0
  0
ENDTAB
  0
TABLE
  2
LTYPE
  5
5
330
0
100
AcDbSymbolTable
 70
     1
  0
LTYPE
  5
14
330
5
100
AcDbSymbolTableRecord
100
AcDbLinetypeTableRecord
  2
BYBLOCK
 70
     0
  3

 72
    65
 73
     0
 40
0.0
  0
LTYPE
  5
15
330
5
100
AcDbSymbolTableRecord
100
AcDbLinetypeTableRecord
  2
BYLAYER
 70
     0
  3

 72
    65
 73
     0
 40
0.0
  0
LTYPE
  5
16
330
5
100
AcDbSymbolTableRecord
100
AcDbLinetypeTableRecord
  2
CONTINUOUS
 70
     0
  3
Solid line
 72
    65
 73
     0
 40
0.0
  0
ENDTAB
  0
TABLE
  2
LAYER
  5
2
100
AcDbSymbolTable
 70
1
  0
LAYER
  5
50
100
AcDbSymbolTableRecord
100
AcDbLayerTableRecord
  2
0
 70
0
  6
CONTINUOUS
  0
ENDTAB
  0
TABLE
  2
STYLE
  5
3
330
0
100
AcDbSymbolTable
 70
     1
  0
STYLE
  5
11
330
3
100
AcDbSymbolTableRecord
100
AcDbTextStyleTableRecord
  2
STANDARD
 70
     0
 40
0.0
 41
1.0
 50
0.0
 71
     0
 42
2.5
  3
txt
  4

  0
ENDTAB
  0
TABLE
  2
VIEW
  5
6
330
0
100
AcDbSymbolTable
 70
     0
  0
ENDTAB
  0
TABLE
  2
UCS
  5
7
330
0
100
AcDbSymbolTable
 70
     0
  0
ENDTAB
  0
TABLE
  2
APPID
  5
9
330
0
100
AcDbSymbolTable
 70
     2
  0
APPID
  5
12
330
9
100
AcDbSymbolTableRecord
100
AcDbRegAppTableRecord
  2
ACAD
 70
     0
  0
ENDTAB
  0
TABLE
  2
DIMSTYLE
  5
A
330
0
100
AcDbSymbolTable
 70
     1
  0
DIMSTYLE
105
27
330
A
100
AcDbSymbolTableRecord
100
AcDbDimStyleTableRecord
  2
ISO-25
 70
     0
  3

  4

  5

  6

  7

 40
1.0
 41
2.5
 42
0.625
 43
3.75
 44
1.25
 45
0.0
 46
0.0
 47
0.0
 48
0.0
140
2.5
141
2.5
142
0.0
143
0.03937007874016
144
1.0
145
0.0
146
1.0
147
0.625
 71
     0
 72
     0
 73
     0
 74
     0
 75
     0
 76
     0
 77
     1
 78
     8
170
     0
171
     3
172
     1
173
     0
174
     0
175
     0
176
     0
177
     0
178
     0
270
     2
271
     2
272
     2
273
     2
274
     3
340
11
275
     0
280
     0
281
     0
282
     0
283
     0
284
     8
285
     0
286
     0
287
     3
288
     0
  0
ENDTAB
  0
TABLE
  2
BLOCK_RECORD
  5
1
330
0
100
AcDbSymbolTable
 70
     1
  0
BLOCK_RECORD
  5
1F
330
1
100
AcDbSymbolTableRecord
100
AcDbBlockTableRecord
  2
*MODEL_SPACE
  0
BLOCK_RECORD
  5
1B
330
1
100
AcDbSymbolTableRecord
100
AcDbBlockTableRecord
  2
*PAPER_SPACE
  0
ENDTAB
  0
ENDSEC
  0
SECTION
  2
BLOCKS
  0
BLOCK
  5
20
330
1F
100
AcDbEntity
  8
0
100
AcDbBlockBegin
  2
*MODEL_SPACE
 70
     0
 10
0.0
 20
0.0
 30
0.0
  3
*MODEL_SPACE
  1

  0
ENDBLK
  5
21
330
1F
100
AcDbEntity
  8
0
100
AcDbBlockEnd
  0
BLOCK
  5
1C
330
1B
100
AcDbEntity
 67
     1
  8
0
100
AcDbBlockBegin
  2
*PAPER_SPACE
  1

  0
ENDBLK
  5
1D
330
1B
100
AcDbEntity
 67
     1
  8
0
100
AcDbBlockEnd
  0
ENDSEC
  0
SECTION
  2
ENTITIES
  0
LWPOLYLINE
  5
100
100
AcDbEntity
  8
0
 62
7
100
AcDbPolyline
 90
2
 70
0
 10
167.080400
 20
117.512200
 30
0.0
 10
175.495000
 20
125.926800
 30
0.0
  0
LWPOLYLINE
  5
101
100
AcDbEntity
  8
0
 62
7
100
AcDbPolyline
 90
2
 70
0
 10
174.505000
 20
110.087600
 30
0.0
 10
167.080400
 20
117.512200
 30
0.0
  0
LWPOLYLINE
  5
102
100
AcDbEntity
  8
0
 62
7
100
AcDbPolyline
 90
3
 70
0
 10
175.495000
 20
125.926800
 30
0.0
 10
182.919600
 20
118.502200
 30
0.0
 10
174.505000
 20
110.087600
 30
0.0
  0
LWPOLYLINE
  5
103
100
AcDbEntity
  8
0
 62
7
100
AcDbPolyline
 90
2
 70
0
 10
117.080400
 20
123.512200
 30
0.0
 10
125.495000
 20
131.926800
 30
0.0
  0
LWPOLYLINE
  5
104
100
AcDbEntity
  8
0
 62
7
100
AcDbPolyline
 90
2
 70
0
 10
124.505000
 20
116.087600
 30
0.0
 10
117.080400
 20
123.512200
 30
0.0
  0
LWPOLYLINE
  5
105
100
AcDbEntity
  8
0
 62
7
100
AcDbPolyline
 90
3
 70
0
 10
125.495000
 20
131.926800
 30
0.0
 10
132.919600
 20
124.502200
 30
0.0
 10
124.505000
 20
116.087600
 30
0.0
  0
LWPOLYLINE
  5
106
100
AcDbEntity
  8
0
 62
6
100
AcDbPolyline
 90
2
 70
0
 10
142.080400
 20
126.512200
 30
0.0
 10
150.495000
 20
134.926800
 30
0.0
  0
LWPOLYLINE
  5
107
100
AcDbEntity
  8
0
 62
6
100
AcDbPolyline
 90
2
 70
0
 10
149.505000
 20
119.087600
 30
0.0
 10
142.080400
 20
126.512200
 30
0.0
  0
LWPOLYLINE
  5
108
100
AcDbEntity
  8
0
 62
6
100
AcDbPolyline
 90
3
 70
0
 10
150.495000
 20
134.926800
 30
0.0
 10
157.919600
 20
127.502200
 30
0.0
 10
149.505000
 20
119.087600
 30
0.0
  0
LWPOLYLINE
  5
109
100
AcDbEntity
  8
0
 62
6
100
AcDbPolyline
 90
2
 70
0
 10
92.080400
 20
109.512200
 30
0.0
 10
100.495000
 20
117.926800
 30
0.0
  0
LWPOLYLINE
  5
10a
100
AcDbEntity
  8
0
 62
6
100
AcDbPolyline
 90
2
 70
0
 10
99.505000
 20
102.087600
 30
0.0
 10
92.080400
 20
109.512200
 30
0.0
  0
LWPOLYLINE
  5
10b
100
AcDbEntity
  8
0
 62
6
100
AcDbPolyline
 90
3
 70
0
 10
100.495000
 20
117.926800
 30
0.0
 10
107.919600
 20
110.502200
 30
0.0
 10
99.505000
 20
102.087600
 30
0.0
  0
LWPOLYLINE
  5
10c
100
AcDbEntity
  8
0
 62
6
100
AcDbPolyline
 90
2
 70
0
 10
187.080400
 20
62.512200
 30
0.0
 10
195.495000
 20
70.926800
 30
0.0
  0
LWPOLYLINE
  5
10d
100
AcDbEntity
  8
0
 62
6
100
AcDbPolyline
 90
2
 70
0
 10
194.505000
 20
55.087600
 30
0.0
 10
187.080400
 20
62.512200
 30
0.0
  0
SPLINE
  5
10e
100
AcDbEntity
  8
0
 62
7
100
AcDbSpline
 70
8
 71
3
 72
8
 73
4
 74
0
 40
0
 40
0
 40
0
 40
0
 40
1
 40
1
 40
1
 40
1
 10
104.600000
 20
129.757200
 30
0.0
 10
103.609068
 20
129.757200
 30
0.0
 10
102.715709
 20
129.160277
 30
0.0
 10
102.336495
 20
128.244774
 30
0.0
  0
SPLINE
  5
10f
100
AcDbEntity
  8
0
 62
7
100
AcDbSpline
 70
8
 71
3
 72
8
 73
4
 74
0
 40
0
 40
0
 40
0
 40
0
 40
1
 40
1
 40
1
 40
1
 10
102.336495
 20
128.244774
 30
0.0
 10
101.957282
 20
127.329272
 30
0.0
 10
102.166893
 20
126.275483
 30
0.0
 10
102.867588
 20
125.574788
 30
0.0
  0
SPLINE
  5
110
100
AcDbEntity
  8
0
 62
7
100
AcDbSpline
 70
8
 71
3
 72
8
 73
4
 74
0
 40
0
 40
0
 40
0
 40
0
 40
1
 40
1
 40
1
 40
1
 10
102.867588
 20
125.574788
 30
0.0
 10
103.568283
 20
124.874093
 30
0.0
 10
104.622072
 20
124.664482
 30
0.0
 10
105.537574
 20
125.043695
 30
0.0
  0
SPLINE
  5
111
100
AcDbEntity
  8
0
 62
7
100
AcDbSpline
 70
8
 71
3
 72
8
 73
4
 74
0
 40
0
 40
0
 40
0
 40
0
 40
1
 40
1
 40
1
 40
1
 10
105.537574
 20
125.043695
 30
0.0
 10
106.453077
 20
125.422909
 30
0.0
 10
107.050000
 20
126.316268
 30
0.0
 10
107.050000
 20
127.307200
 30
0.0
  0
SPLINE
  5
112
100
AcDbEntity
  8
0
 62
7
100
AcDbSpline
 70
8
 71
3
 72
8
 73
4
 74
0
 40
0
 40
0
 40
0
 40
0
 40
1
 40
1
 40
1
 40
1
 10
107.050000
 20
127.307200
 30
0.0
 10
107.050000
 20
127.956980
 30
0.0
 10
106.791876
 20
128.580147
 30
0.0
 10
106.332412
 20
129.039612
 30
0.0
  0
SPLINE
  5
113
100
AcDbEntity
  8
0
 62
7
100
AcDbSpline
 70
8
 71
3
 72
8
 73
4
 74
0
 40
0
 40
0
 40
0
 40
0
 40
1
 40
1
 40
1
 40
1
 10
106.332412
 20
129.039612
 30
0.0
 10
105.872947
 20
129.499076
 30
0.0
 10
105.249780
 20
129.757200
 30
0.0
 10
104.600000
 20
129.757200
 30
0.0
  0
LWPOLYLINE
  5
114
100
AcDbEntity
  8
0
 62
6
100
AcDbPolyline
 90
3
 70
0
 10
195.495000
 20
70.926800
 30
0.0
 10
202.919600
 20
63.502200
 30
0.0
 10
194.505000
 20
55.087600
 30
0.0
  0
SPLINE
  5
115
100
AcDbEntity
  8
0
 62
6
100
AcDbSpline
 70
8
 71
3
 72
8
 73
4
 74
0
 40
0
 40
0
 40
0
 40
0
 40
1
 40
1
 40
1
 40
1
 10
196.899990
 20
81.757200
 30
0.0
 10
195.909058
 20
81.757200
 30
0.0
 10
195.015699
 20
81.160277
 30
0.0
 10
194.636485
 20
80.244774
 30
0.0
  0
SPLINE
  5
116
100
AcDbEntity
  8
0
 62
6
100
AcDbSpline
 70
8
 71
3
 72
8
 73
4
 74
0
 40
0
 40
0
 40
0
 40
0
 40
1
 40
1
 40
1
 40
1
 10
194.636485
 20
80.244774
 30
0.0
 10
194.257272
 20
79.329272
 30
0.0
 10
194.466883
 20
78.275483
 30
0.0
 10
195.167578
 20
77.574788
 30
0.0
  0
SPLINE
  5
117
100
AcDbEntity
  8
0
 62
6
100
AcDbSpline
 70
8
 71
3
 72
8
 73
4
 74
0
 40
0
 40
0
 40
0
 40
0
 40
1
 40
1
 40
1
 40
1
 10
195.167578
 20
77.574788
 30
0.0
 10
195.868273
 20
76.874093
 30
0.0
 10
196.922062
 20
76.664482
 30
0.0
 10
197.837564
 20
77.043695
 30
0.0
  0
SPLINE
  5
118
100
AcDbEntity
  8
0
 62
6
100
AcDbSpline
 70
8
 71
3
 72
8
 73
4
 74
0
 40
0
 40
0
 40
0
 40
0
 40
1
 40
1
 40
1
 40
1
 10
197.837564
 20
77.043695
 30
0.0
 10
198.753067
 20
77.422909
 30
0.0
 10
199.349990
 20
78.316268
 30
0.0
 10
199.349990
 20
79.307200
 30
0.0
  0
SPLINE
  5
119
100
AcDbEntity
  8
0
 62
6
100
AcDbSpline
 70
8
 71
3
 72
8
 73
4
 74
0
 40
0
 40
0
 40
0
 40
0
 40
1
 40
1
 40
1
 40
1
 10
199.349990
 20
79.307200
 30
0.0
 10
199.349990
 20
79.956980
 30
0.0
 10
199.091866
 20
80.580147
 30
0.0
 10
198.632402
 20
81.039612
 30
0.0
  0
SPLINE
  5
11a
100
AcDbEntity
  8
0
 62
6
100
AcDbSpline
 70
8
 71
3
 72
8
 73
4
 74
0
 40
0
 40
0
 40
0
 40
0
 40
1
 40
1
 40
1
 40
1
 10
198.632402
 20
81.039612
 30
0.0
 10
198.172937
 20
81.499076
 30
0.0
 10
197.549770
 20
81.757200
 30
0.0
 10
196.899990
 20
81.757200
 30
0.0
  0
LWPOLYLINE
  5
11b
100
AcDbEntity
  8
0
 62
7
100
AcDbPolyline
 90
1
 70
1
 10
104.600000
 20
129.757200
 30
0.0
  0
SPLINE
  5
11c
100
AcDbEntity
  8
0
 62
6
100
AcDbSpline
 70
8
 71
3
 72
8
 73
4
 74
0
 40
0
 40
0
 40
0
 40
0
 40
1
 40
1
 40
1
 40
1
 10
186.700000
 20
125.057198
 30
0.0
 10
185.709068
 20
125.057198
 30
0.0
 10
184.815709
 20
124.460275
 30
0.0
 10
184.436495
 20
123.544772
 30
0.0
  0
SPLINE
  5
11d
100
AcDbEntity
  8
0
 62
6
100
AcDbSpline
 70
8
 71
3
 72
8
 73
4
 74
0
 40
0
 40
0
 40
0
 40
0
 40
1
 40
1
 40
1
 40
1
 10
184.436495
 20
123.544772
 30
0.0
 10
184.057282
 20
122.629270
 30
0.0
 10
184.266893
 20
121.575481
 30
0.0
 10
184.967588
 20
120.874786
 30
0.0
  0
SPLINE
  5
11e
100
AcDbEntity
  8
0
 62
6
100
AcDbSpline
 70
8
 71
3
 72
8
 73
4
 74
0
 40
0
 40
0
 40
0
 40
0
 40
1
 40
1
 40
1
 40
1
 10
184.967588
 20
120.874786
 30
0.0
 10
185.668283
 20
120.174091
 30
0.0
 10
186.722072
 20
119.964480
 30
0.0
 10
187.637574
 20
120.343693
 30
0.0
  0
SPLINE
  5
11f
100
AcDbEntity
  8
0
 62
6
100
AcDbSpline
 70
8
 71
3
 72
8
 73
4
 74
0
 40
0
 40
0
 40
0
 40
0
 40
1
 40
1
 40
1
 40
1
 10
187.637574
 20
120.343693
 30
0.0
 10
188.553077
 20
120.722907
 30
0.0
 10
189.150000
 20
121.616266
 30
0.0
 10
189.150000
 20
122.607198
 30
0.0
  0
SPLINE
  5
120
100
AcDbEntity
  8
0
 62
6
100
AcDbSpline
 70
8
 71
3
 72
8
 73
4
 74
0
 40
0
 40
0
 40
0
 40
0
 40
1
 40
1
 40
1
 40
1
 10
189.150000
 20
122.607198
 30
0.0
 10
189.150000
 20
123.256978
 30
0.0
 10
188.891876
 20
123.880145
 30
0.0
 10
188.432412
 20
124.339610
 30
0.0
  0
SPLINE
  5
121
100
AcDbEntity
  8
0
 62
6
100
AcDbSpline
 70
8
 71
3
 72
8
 73
4
 74
0
 40
0
 40
0
 40
0
 40
0
 40
1
 40
1
 40
1
 40
1
 10
188.432412
 20
124.339610
 30
0.0
 10
187.972947
 20
124.799074
 30
0.0
 10
187.349780
 20
125.057198
 30
0.0
 10
186.700000
 20
125.057198
 30
0.0
  0
LWPOLYLINE
  5
122
100
AcDbEntity
  8
0
 62
6
100
AcDbPolyline
 90
1
 70
1
 10
196.899990
 20
81.757200
 30
0.0
  0
SPLINE
  5
123
100
AcDbEntity
  8
0
 62
6
100
AcDbSpline
 70
8
 71
3
 72
8
 73
4
 74
0
 40
0
 40
0
 40
0
 40
0
 40
1
 40
1
 40
1
 40
1
 10
91.900002
 20
105.357200
 30
0.0
 10
90.546904
 20
105.357200
 30
0.0
 10
89.450002
 20
104.260298
 30
0.0
 10
89.450002
 20
102.907200
 30
0.0
  0
SPLINE
  5
124
100
AcDbEntity
  8
0
 62
6
100
AcDbSpline
 70
8
 71
3
 72
8
 73
4
 74
0
 40
0
 40
0
 40
0
 40
0
 40
1
 40
1
 40
1
 40
1
 10
89.450002
 20
102.907200
 30
0.0
 10
89.450002
 20
101.554102
 30
0.0
 10
90.546904
 20
100.457200
 30
0.0
 10
91.900002
 20
100.457200
 30
0.0
  0
SPLINE
  5
125
100
AcDbEntity
  8
0
 62
6
100
AcDbSpline
 70
8
 71
3
 72
8
 73
4
 74
0
 40
0
 40
0
 40
0
 40
0
 40
1
 40
1
 40
1
 40
1
 10
91.900002
 20
100.457200
 30
0.0
 10
93.253100
 20
100.457200
 30
0.0
 10
94.350002
 20
101.554102
 30
0.0
 10
94.350002
 20
102.907200
 30
0.0
  0
SPLINE
  5
126
100
AcDbEntity
  8
0
 62
6
100
AcDbSpline
 70
8
 71
3
 72
8
 73
4
 74
0
 40
0
 40
0
 40
0
 40
0
 40
1
 40
1
 40
1
 40
1
 10
94.350002
 20
102.907200
 30
0.0
 10
94.350002
 20
103.556980
 30
0.0
 10
94.091878
 20
104.180147
 30
0.0
 10
93.632414
 20
104.639612
 30
0.0
  0
SPLINE
  5
127
100
AcDbEntity
  8
0
 62
6
100
AcDbSpline
 70
8
 71
3
 72
8
 73
4
 74
0
 40
0
 40
0
 40
0
 40
0
 40
1
 40
1
 40
1
 40
1
 10
93.632414
 20
104.639612
 30
0.0
 10
93.172949
 20
105.099076
 30
0.0
 10
92.549782
 20
105.357200
 30
0.0
 10
91.900002
 20
105.357200
 30
0.0
  0
LWPOLYLINE
  5
128
100
AcDbEntity
  8
0
 62
6
100
AcDbPolyline
 90
1
 70
1
 10
186.700000
 20
125.057198
 30
0.0
  0
SPLINE
  5
129
100
AcDbEntity
  8
0
 62
6
100
AcDbSpline
 70
8
 71
3
 72
8
 73
4
 74
0
 40
0
 40
0
 40
0
 40
0
 40
1
 40
1
 40
1
 40
1
 10
137.566700
 20
127.790498
 30
0.0
 10
136.575768
 20
127.790498
 30
0.0
 10
135.682409
 20
127.193575
 30
0.0
 10
135.303195
 20
126.278072
 30
0.0
  0
SPLINE
  5
12a
100
AcDbEntity
  8
0
 62
6
100
AcDbSpline
 70
8
 71
3
 72
8
 73
4
 74
0
 40
0
 40
0
 40
0
 40
0
 40
1
 40
1
 40
1
 40
1
 10
135.303195
 20
126.278072
 30
0.0
 10
134.923982
 20
125.362570
 30
0.0
 10
135.133593
 20
124.308781
 30
0.0
 10
135.834288
 20
123.608086
 30
0.0
  0
SPLINE
  5
12b
100
AcDbEntity
  8
0
 62
6
100
AcDbSpline
 70
8
 71
3
 72
8
 73
4
 74
0
 40
0
 40
0
 40
0
 40
0
 40
1
 40
1
 40
1
 40
1
 10
135.834288
 20
123.608086
 30
0.0
 10
136.534983
 20
122.907391
 30
0.0
 10
137.588772
 20
122.697780
 30
0.0
 10
138.504274
 20
123.076993
 30
0.0
  0
SPLINE
  5
12c
100
AcDbEntity
  8
0
 62
6
100
AcDbSpline
 70
8
 71
3
 72
8
 73
4
 74
0
 40
0
 40
0
 40
0
 40
0
 40
1
 40
1
 40
1
 40
1
 10
138.504274
 20
123.076993
 30
0.0
 10
139.419777
 20
123.456207
 30
0.0
 10
140.016700
 20
124.349566
 30
0.0
 10
140.016700
 20
125.340498
 30
0.0
  0
SPLINE
  5
12d
100
AcDbEntity
  8
0
 62
6
100
AcDbSpline
 70
8
 71
3
 72
8
 73
4
 74
0
 40
0
 40
0
 40
0
 40
0
 40
1
 40
1
 40
1
 40
1
 10
140.016700
 20
125.340498
 30
0.0
 10
140.016700
 20
125.990278
 30
0.0
 10
139.758576
 20
126.613445
 30
0.0
 10
139.299112
 20
127.072910
 30
0.0
  0
SPLINE
  5
12e
100
AcDbEntity
  8
0
 62
6
100
AcDbSpline
 70
8
 71
3
 72
8
 73
4
 74
0
 40
0
 40
0
 40
0
 40
0
 40
1
 40
1
 40
1
 40
1
 10
139.299112
 20
127.072910
 30
0.0
 10
138.839647
 20
127.532374
 30
0.0
 10
138.216480
 20
127.790498
 30
0.0
 10
137.566700
 20
127.790498
 30
0.0
  0
LWPOLYLINE
  5
12f
100
AcDbEntity
  8
0
 62
6
100
AcDbPolyline
 90
1
 70
1
 10
91.900002
 20
105.357200
 30
0.0
  0
LWPOLYLINE
  5
130
100
AcDbEntity
  8
0
 62
6
100
AcDbPolyline
 90
1
 70
1
 10
137.566700
 20
127.790498
 30
0.0
  0
SPLINE
  5
131
100
AcDbEntity
  8
0
 62
7
100
AcDbSpline
 70
8
 71
3
 72
8
 73
4
 74
0
 40
0
 40
0
 40
0
 40
0
 40
1
 40
1
 40
1
 40
1
 10
215.029280
 20
85.408910
 30
0.0
 10
215.038813
 20
85.447110
 30
0.0
 10
215.059213
 20
85.484113
 30
0.0
 10
215.090480
 20
85.519920
 30
0.0
  0
SPLINE
  5
132
100
AcDbEntity
  8
0
 62
7
100
AcDbSpline
 70
8
 71
3
 72
8
 73
4
 74
0
 40
0
 40
0
 40
0
 40
0
 40
1
 40
1
 40
1
 40
1
 10
215.090480
 20
85.519920
 30
0.0
 10
215.121747
 20
85.556320
 30
0.0
 10
215.164713
 20
85.592737
 30
0.0
 10
215.219380
 20
85.629170
 30
0.0
  0
LWPOLYLINE
  5
133
100
AcDbEntity
  8
0
 62
7
100
AcDbPolyline
 90
12
 70
1
 10
214.513020
 20
83.428340
 30
0.0
 10
214.513020
 20
83.606310
 30
0.0
 10
214.911450
 20
83.606310
 30
0.0
 10
214.911450
 20
84.252990
 30
0.0
 10
214.513020
 20
84.252990
 30
0.0
 10
214.513020
 20
84.430960
 30
0.0
 10
215.485000
 20
84.430960
 30
0.0
 10
215.485000
 20
84.252990
 30
0.0
 10
215.022120
 20
84.252990
 30
0.0
 10
215.022120
 20
83.606310
 30
0.0
 10
215.485000
 20
83.606310
 30
0.0
 10
215.485000
 20
83.428340
 30
0.0
  0
SPLINE
  5
134
100
AcDbEntity
  8
0
 62
7
100
AcDbSpline
 70
8
 71
3
 72
8
 73
4
 74
0
 40
0
 40
0
 40
0
 40
0
 40
1
 40
1
 40
1
 40
1
 10
215.235660
 20
85.450320
 30
0.0
 10
215.170527
 20
85.406853
 30
0.0
 10
215.127340
 20
85.364563
 30
0.0
 10
215.106100
 20
85.323450
 30
0.0
  0
SPLINE
  5
135
100
AcDbEntity
  8
0
 62
7
100
AcDbSpline
 70
8
 71
3
 72
8
 73
4
 74
0
 40
0
 40
0
 40
0
 40
0
 40
1
 40
1
 40
1
 40
1
 10
215.106100
 20
85.323450
 30
0.0
 10
215.084833
 20
85.282917
 30
0.0
 10
215.074200
 20
85.227410
 30
0.0
 10
215.074200
 20
85.156930
 30
0.0
  0
LWPOLYLINE
  5
136
100
AcDbEntity
  8
0
 62
7
100
AcDbPolyline
 90
4
 70
0
 10
215.219380
 20
85.629170
 30
0.0
 10
215.485000
 20
85.809780
 30
0.0
 10
215.485000
 20
85.618600
 30
0.0
 10
215.235660
 20
85.450320
 30
0.0
  0
SPLINE
  5
137
100
AcDbEntity
  8
0
 62
7
100
AcDbSpline
 70
8
 71
3
 72
8
 73
4
 74
0
 40
0
 40
0
 40
0
 40
0
 40
1
 40
1
 40
1
 40
1
 10
214.513020
 20
85.186890
 30
0.0
 10
214.513020
 20
85.337250
 30
0.0
 10
214.536253
 20
85.449437
 30
0.0
 10
214.582720
 20
85.523450
 30
0.0
  0
SPLINE
  5
138
100
AcDbEntity
  8
0
 62
7
100
AcDbSpline
 70
8
 71
3
 72
8
 73
4
 74
0
 40
0
 40
0
 40
0
 40
0
 40
1
 40
1
 40
1
 40
1
 10
214.582720
 20
85.523450
 30
0.0
 10
214.629187
 20
85.597457
 30
0.0
 10
214.699280
 20
85.634460
 30
0.0
 10
214.793000
 20
85.634460
 30
0.0
  0
SPLINE
  5
139
100
AcDbEntity
  8
0
 62
7
100
AcDbSpline
 70
8
 71
3
 72
8
 73
4
 74
0
 40
0
 40
0
 40
0
 40
0
 40
1
 40
1
 40
1
 40
1
 10
214.793000
 20
85.634460
 30
0.0
 10
214.854200
 20
85.634460
 30
0.0
 10
214.904980
 20
85.615093
 30
0.0
 10
214.945340
 20
85.576360
 30
0.0
  0
SPLINE
  5
13a
100
AcDbEntity
  8
0
 62
7
100
AcDbSpline
 70
8
 71
3
 72
8
 73
4
 74
0
 40
0
 40
0
 40
0
 40
0
 40
1
 40
1
 40
1
 40
1
 10
214.945340
 20
85.576360
 30
0.0
 10
214.985673
 20
85.538160
 30
0.0
 10
215.013673
 20
85.482360
 30
0.0
 10
215.029340
 20
85.408960
 30
0.0
  0
LWPOLYLINE
  5
13b
100
AcDbEntity
  8
0
 62
7
100
AcDbPolyline
 90
6
 70
0
 10
215.074200
 20
85.156930
 30
0.0
 10
215.074200
 20
84.963110
 30
0.0
 10
215.485000
 20
84.963110
 30
0.0
 10
215.485000
 20
84.785140
 30
0.0
 10
214.513020
 20
84.785140
 30
0.0
 10
214.513020
 20
85.186890
 30
0.0
  0
LWPOLYLINE
  5
13c
100
AcDbEntity
  8
0
 62
7
100
AcDbPolyline
 90
1
 70
1
 10
215.029340
 20
85.408960
 30
0.0
  0
SPLINE
  5
13d
100
AcDbEntity
  8
0
 62
7
100
AcDbSpline
 70
8
 71
3
 72
8
 73
4
 74
0
 40
0
 40
0
 40
0
 40
0
 40
1
 40
1
 40
1
 40
1
 10
214.966130
 20
85.186890
 30
0.0
 10
214.966130
 20
85.272643
 30
0.0
 10
214.951597
 20
85.337253
 30
0.0
 10
214.922530
 20
85.380720
 30
0.0
  0
SPLINE
  5
13e
100
AcDbEntity
  8
0
 62
7
100
AcDbSpline
 70
8
 71
3
 72
8
 73
4
 74
0
 40
0
 40
0
 40
0
 40
0
 40
1
 40
1
 40
1
 40
1
 10
214.922530
 20
85.380720
 30
0.0
 10
214.892997
 20
85.424787
 30
0.0
 10
214.849813
 20
85.446820
 30
0.0
 10
214.792980
 20
85.446820
 30
0.0
  0
SPLINE
  5
13f
100
AcDbEntity
  8
0
 62
7
100
AcDbSpline
 70
8
 71
3
 72
8
 73
4
 74
0
 40
0
 40
0
 40
0
 40
0
 40
1
 40
1
 40
1
 40
1
 10
214.792980
 20
85.446820
 30
0.0
 10
214.736113
 20
85.446820
 30
0.0
 10
214.693363
 20
85.424787
 30
0.0
 10
214.664730
 20
85.380720
 30
0.0
  0
SPLINE
  5
140
100
AcDbEntity
  8
0
 62
7
100
AcDbSpline
 70
8
 71
3
 72
8
 73
4
 74
0
 40
0
 40
0
 40
0
 40
0
 40
1
 40
1
 40
1
 40
1
 10
214.664730
 20
85.380720
 30
0.0
 10
214.635663
 20
85.337253
 30
0.0
 10
214.621130
 20
85.272643
 30
0.0
 10
214.621130
 20
85.186890
 30
0.0
  0
LWPOLYLINE
  5
141
100
AcDbEntity
  8
0
 62
7
100
AcDbPolyline
 90
3
 70
0
 10
214.621090
 20
84.963110
 30
0.0
 10
214.966130
 20
84.963110
 30
0.0
 10
214.966130
 20
85.186890
 30
0.0
  0
SPLINE
  5
142
100
AcDbEntity
  8
0
 62
7
100
AcDbSpline
 70
8
 71
3
 72
8
 73
4
 74
0
 40
0
 40
0
 40
0
 40
0
 40
1
 40
1
 40
1
 40
1
 10
214.602190
 20
86.572760
 30
0.0
 10
214.602190
 20
86.443540
 30
0.0
 10
214.637780
 20
86.340753
 30
0.0
 10
214.708960
 20
86.264400
 30
0.0
  0
SPLINE
  5
143
100
AcDbEntity
  8
0
 62
7
100
AcDbSpline
 70
8
 71
3
 72
8
 73
4
 74
0
 40
0
 40
0
 40
0
 40
0
 40
1
 40
1
 40
1
 40
1
 10
214.708960
 20
86.264400
 30
0.0
 10
214.780140
 20
86.188627
 30
0.0
 10
214.877143
 20
86.150740
 30
0.0
 10
214.999970
 20
86.150740
 30
0.0
  0
SPLINE
  5
144
100
AcDbEntity
  8
0
 62
7
100
AcDbSpline
 70
8
 71
3
 72
8
 73
4
 74
0
 40
0
 40
0
 40
0
 40
0
 40
1
 40
1
 40
1
 40
1
 10
214.999970
 20
86.150740
 30
0.0
 10
215.122363
 20
86.150740
 30
0.0
 10
215.219147
 20
86.188627
 30
0.0
 10
215.290320
 20
86.264400
 30
0.0
  0
SPLINE
  5
145
100
AcDbEntity
  8
0
 62
7
100
AcDbSpline
 70
8
 71
3
 72
8
 73
4
 74
0
 40
0
 40
0
 40
0
 40
0
 40
1
 40
1
 40
1
 40
1
 10
215.290320
 20
86.264400
 30
0.0
 10
215.361500
 20
86.340753
 30
0.0
 10
215.397090
 20
86.443540
 30
0.0
 10
215.397090
 20
86.572760
 30
0.0
  0
SPLINE
  5
146
100
AcDbEntity
  8
0
 62
7
100
AcDbSpline
 70
8
 71
3
 72
8
 73
4
 74
0
 40
0
 40
0
 40
0
 40
0
 40
1
 40
1
 40
1
 40
1
 10
215.397090
 20
86.572760
 30
0.0
 10
215.397090
 20
86.701980
 30
0.0
 10
215.361500
 20
86.804180
 30
0.0
 10
215.290320
 20
86.879360
 30
0.0
  0
SPLINE
  5
147
100
AcDbEntity
  8
0
 62
7
100
AcDbSpline
 70
8
 71
3
 72
8
 73
4
 74
0
 40
0
 40
0
 40
0
 40
0
 40
1
 40
1
 40
1
 40
1
 10
215.290320
 20
86.879360
 30
0.0
 10
215.219147
 20
86.955133
 30
0.0
 10
215.122363
 20
86.993020
 30
0.0
 10
214.999970
 20
86.993020
 30
0.0
  0
SPLINE
  5
148
100
AcDbEntity
  8
0
 62
7
100
AcDbSpline
 70
8
 71
3
 72
8
 73
4
 74
0
 40
0
 40
0
 40
0
 40
0
 40
1
 40
1
 40
1
 40
1
 10
214.999970
 20
86.993020
 30
0.0
 10
214.877143
 20
86.993020
 30
0.0
 10
214.780140
 20
86.955133
 30
0.0
 10
214.708960
 20
86.879360
 30
0.0
  0
SPLINE
  5
149
100
AcDbEntity
  8
0
 62
7
100
AcDbSpline
 70
8
 71
3
 72
8
 73
4
 74
0
 40
0
 40
0
 40
0
 40
0
 40
1
 40
1
 40
1
 40
1
 10
214.708960
 20
86.879360
 30
0.0
 10
214.637780
 20
86.804180
 30
0.0
 10
214.602190
 20
86.701980
 30
0.0
 10
214.602190
 20
86.572760
 30
0.0
  0
LWPOLYLINE
  5
14a
100
AcDbEntity
  8
0
 62
7
100
AcDbPolyline
 90
2
 70
0
 10
214.621130
 20
85.186890
 30
0.0
 10
214.621090
 20
84.963110
 30
0.0
  0
SPLINE
  5
14b
100
AcDbEntity
  8
0
 62
7
100
AcDbSpline
 70
8
 71
3
 72
8
 73
4
 74
0
 40
0
 40
0
 40
0
 40
0
 40
1
 40
1
 40
1
 40
1
 10
214.495420
 20
86.572760
 30
0.0
 10
214.495420
 20
86.757193
 30
0.0
 10
214.541210
 20
86.904620
 30
0.0
 10
214.632790
 20
87.015040
 30
0.0
  0
SPLINE
  5
14c
100
AcDbEntity
  8
0
 62
7
100
AcDbSpline
 70
8
 71
3
 72
8
 73
4
 74
0
 40
0
 40
0
 40
0
 40
0
 40
1
 40
1
 40
1
 40
1
 10
214.632790
 20
87.015040
 30
0.0
 10
214.723930
 20
87.125467
 30
0.0
 10
214.846323
 20
87.180680
 30
0.0
 10
214.999970
 20
87.180680
 30
0.0
  0
SPLINE
  5
14d
100
AcDbEntity
  8
0
 62
7
100
AcDbSpline
 70
8
 71
3
 72
8
 73
4
 74
0
 40
0
 40
0
 40
0
 40
0
 40
1
 40
1
 40
1
 40
1
 10
214.999970
 20
87.180680
 30
0.0
 10
215.153177
 20
87.180680
 30
0.0
 10
215.275567
 20
87.125467
 30
0.0
 10
215.367140
 20
87.015040
 30
0.0
  0
SPLINE
  5
14e
100
AcDbEntity
  8
0
 62
7
100
AcDbSpline
 70
8
 71
3
 72
8
 73
4
 74
0
 40
0
 40
0
 40
0
 40
0
 40
1
 40
1
 40
1
 40
1
 10
215.367140
 20
87.015040
 30
0.0
 10
215.458287
 20
86.904620
 30
0.0
 10
215.503860
 20
86.757193
 30
0.0
 10
215.503860
 20
86.572760
 30
0.0
  0
SPLINE
  5
14f
100
AcDbEntity
  8
0
 62
7
100
AcDbSpline
 70
8
 71
3
 72
8
 73
4
 74
0
 40
0
 40
0
 40
0
 40
0
 40
1
 40
1
 40
1
 40
1
 10
215.503860
 20
86.572760
 30
0.0
 10
215.503860
 20
86.387740
 30
0.0
 10
215.458287
 20
86.239727
 30
0.0
 10
215.367140
 20
86.128720
 30
0.0
  0
SPLINE
  5
150
100
AcDbEntity
  8
0
 62
7
100
AcDbSpline
 70
8
 71
3
 72
8
 73
4
 74
0
 40
0
 40
0
 40
0
 40
0
 40
1
 40
1
 40
1
 40
1
 10
215.367140
 20
86.128720
 30
0.0
 10
215.276000
 20
86.018293
 30
0.0
 10
215.153610
 20
85.963080
 30
0.0
 10
214.999970
 20
85.963080
 30
0.0
  0
SPLINE
  5
151
100
AcDbEntity
  8
0
 62
7
100
AcDbSpline
 70
8
 71
3
 72
8
 73
4
 74
0
 40
0
 40
0
 40
0
 40
0
 40
1
 40
1
 40
1
 40
1
 10
214.999970
 20
85.963080
 30
0.0
 10
214.846323
 20
85.963080
 30
0.0
 10
214.723930
 20
86.018293
 30
0.0
 10
214.632790
 20
86.128720
 30
0.0
  0
SPLINE
  5
152
100
AcDbEntity
  8
0
 62
7
100
AcDbSpline
 70
8
 71
3
 72
8
 73
4
 74
0
 40
0
 40
0
 40
0
 40
0
 40
1
 40
1
 40
1
 40
1
 10
214.632790
 20
86.128720
 30
0.0
 10
214.541210
 20
86.239727
 30
0.0
 10
214.495420
 20
86.387740
 30
0.0
 10
214.495420
 20
86.572760
 30
0.0
  0
LWPOLYLINE
  5
153
100
AcDbEntity
  8
0
 62
7
100
AcDbPolyline
 90
1
 70
1
 10
214.602190
 20
86.572760
 30
0.0
  0
LWPOLYLINE
  5
154
100
AcDbEntity
  8
0
 62
7
100
AcDbPolyline
 90
1
 70
1
 10
214.495420
 20
86.572760
 30
0.0
  0
LWPOLYLINE
  5
155
100
AcDbEntity
  8
0
 62
7
100
AcDbPolyline
 90
4
 70
1
 10
215.066370
 20
87.420320
 30
0.0
 10
215.066370
 20
87.895200
 30
0.0
 10
215.173140
 20
87.895200
 30
0.0
 10
215.173140
 20
87.420320
 30
0.0
  0
LWPOLYLINE
  5
156
100
AcDbEntity
  8
0
 62
7
100
AcDbPolyline
 90
8
 70
1
 10
214.513000
 20
87.812380
 30
0.0
 10
214.513000
 20
88.925130
 30
0.0
 10
214.623670
 20
88.925130
 30
0.0
 10
214.623670
 20
88.458180
 30
0.0
 10
215.485000
 20
88.458180
 30
0.0
 10
215.485000
 20
88.279330
 30
0.0
 10
214.623690
 20
88.279330
 30
0.0
 10
214.623690
 20
87.812380
 30
0.0
  0
LWPOLYLINE
  5
157
100
AcDbEntity
  8
0
 62
7
100
AcDbPolyline
 90
9
 70
1
 10
214.513000
 20
88.916320
 30
0.0
 10
214.513000
 20
89.107500
 30
0.0
 10
214.912730
 20
89.472250
 30
0.0
 10
214.513000
 20
89.834360
 30
0.0
 10
214.513000
 20
90.025540
 30
0.0
 10
215.022100
 20
89.560360
 30
0.0
 10
215.485000
 20
89.560360
 30
0.0
 10
215.485000
 20
89.381510
 30
0.0
 10
215.022120
 20
89.381510
 30
0.0
  0
SPLINE
  5
158
100
AcDbEntity
  8
0
 62
7
100
AcDbSpline
 70
8
 71
3
 72
8
 73
4
 74
0
 40
0
 40
0
 40
0
 40
0
 40
1
 40
1
 40
1
 40
1
 10
214.986290
 20
90.600860
 30
0.0
 10
214.986290
 20
90.683680
 30
0.0
 10
214.970457
 20
90.747703
 30
0.0
 10
214.938790
 20
90.792930
 30
0.0
  0
SPLINE
  5
159
100
AcDbEntity
  8
0
 62
7
100
AcDbSpline
 70
8
 71
3
 72
8
 73
4
 74
0
 40
0
 40
0
 40
0
 40
0
 40
1
 40
1
 40
1
 40
1
 10
214.938790
 20
90.792930
 30
0.0
 10
214.907123
 20
90.838130
 30
0.0
 10
214.861987
 20
90.860730
 30
0.0
 10
214.803380
 20
90.860730
 30
0.0
  0
SPLINE
  5
15a
100
AcDbEntity
  8
0
 62
7
100
AcDbSpline
 70
8
 71
3
 72
8
 73
4
 74
0
 40
0
 40
0
 40
0
 40
0
 40
1
 40
1
 40
1
 40
1
 10
214.803380
 20
90.860730
 30
0.0
 10
214.745247
 20
90.860730
 30
0.0
 10
214.700323
 20
90.838130
 30
0.0
 10
214.668610
 20
90.792930
 30
0.0
  0
SPLINE
  5
15b
100
AcDbEntity
  8
0
 62
7
100
AcDbSpline
 70
8
 71
3
 72
8
 73
4
 74
0
 40
0
 40
0
 40
0
 40
0
 40
1
 40
1
 40
1
 40
1
 10
214.668610
 20
90.792930
 30
0.0
 10
214.636943
 20
90.747730
 30
0.0
 10
214.621110
 20
90.683707
 30
0.0
 10
214.621110
 20
90.600860
 30
0.0
  0
LWPOLYLINE
  5
15c
100
AcDbEntity
  8
0
 62
7
100
AcDbPolyline
 90
3
 70
0
 10
214.621070
 20
90.377080
 30
0.0
 10
214.986290
 20
90.377080
 30
0.0
 10
214.986290
 20
90.600860
 30
0.0
  0
LWPOLYLINE
  5
15d
100
AcDbEntity
  8
0
 62
7
100
AcDbPolyline
 90
2
 70
0
 10
214.621110
 20
90.600860
 30
0.0
 10
214.621070
 20
90.377080
 30
0.0
  0
SPLINE
  5
15e
100
AcDbEntity
  8
0
 62
7
100
AcDbSpline
 70
8
 71
3
 72
8
 73
4
 74
0
 40
0
 40
0
 40
0
 40
0
 40
1
 40
1
 40
1
 40
1
 10
214.513000
 20
90.600860
 30
0.0
 10
214.513000
 20
90.748287
 30
0.0
 10
214.537733
 20
90.859593
 30
0.0
 10
214.587200
 20
90.934780
 30
0.0
  0
SPLINE
  5
15f
100
AcDbEntity
  8
0
 62
7
100
AcDbSpline
 70
8
 71
3
 72
8
 73
4
 74
0
 40
0
 40
0
 40
0
 40
0
 40
1
 40
1
 40
1
 40
1
 10
214.587200
 20
90.934780
 30
0.0
 10
214.636267
 20
91.010547
 30
0.0
 10
214.708313
 20
91.048430
 30
0.0
 10
214.803340
 20
91.048430
 30
0.0
  0
SPLINE
  5
160
100
AcDbEntity
  8
0
 62
7
100
AcDbSpline
 70
8
 71
3
 72
8
 73
4
 74
0
 40
0
 40
0
 40
0
 40
0
 40
1
 40
1
 40
1
 40
1
 10
214.803340
 20
91.048430
 30
0.0
 10
214.899253
 20
91.048430
 30
0.0
 10
214.971733
 20
91.010547
 30
0.0
 10
215.020780
 20
90.934780
 30
0.0
  0
SPLINE
  5
161
100
AcDbEntity
  8
0
 62
7
100
AcDbSpline
 70
8
 71
3
 72
8
 73
4
 74
0
 40
0
 40
0
 40
0
 40
0
 40
1
 40
1
 40
1
 40
1
 10
215.020780
 20
90.934780
 30
0.0
 10
215.069847
 20
90.859593
 30
0.0
 10
215.094380
 20
90.748287
 30
0.0
 10
215.094380
 20
90.600860
 30
0.0
  0
LWPOLYLINE
  5
162
100
AcDbEntity
  8
0
 62
7
100
AcDbPolyline
 90
2
 70
0
 10
214.513000
 20
90.199110
 30
0.0
 10
214.513000
 20
90.600860
 30
0.0
  0
LWPOLYLINE
  5
163
100
AcDbEntity
  8
0
 62
7
100
AcDbPolyline
 90
5
 70
0
 10
215.094380
 20
90.600860
 30
0.0
 10
215.094380
 20
90.377080
 30
0.0
 10
215.485000
 20
90.377080
 30
0.0
 10
215.485000
 20
90.199110
 30
0.0
 10
214.513000
 20
90.199110
 30
0.0
  0
LWPOLYLINE
  5
164
100
AcDbEntity
  8
0
 62
7
100
AcDbPolyline
 90
12
 70
1
 10
214.513000
 20
91.287190
 30
0.0
 10
214.513000
 20
92.118890
 30
0.0
 10
214.623670
 20
92.118890
 30
0.0
 10
214.623670
 20
91.465160
 30
0.0
 10
214.911430
 20
91.465160
 30
0.0
 10
214.911430
 20
92.091580
 30
0.0
 10
215.022100
 20
92.091580
 30
0.0
 10
215.022100
 20
91.465160
 30
0.0
 10
215.374310
 20
91.465160
 30
0.0
 10
215.374310
 20
92.134750
 30
0.0
 10
215.485000
 20
92.134750
 30
0.0
 10
215.485000
 20
91.287190
 30
0.0
  0
LWPOLYLINE
  5
165
100
AcDbEntity
  8
0
 62
7
100
AcDbPolyline
 90
4
 70
1
 10
215.066370
 20
92.338270
 30
0.0
 10
215.066370
 20
92.813150
 30
0.0
 10
215.173140
 20
92.813150
 30
0.0
 10
215.173140
 20
92.338270
 30
0.0
  0
SPLINE
  5
166
100
AcDbEntity
  8
0
 62
7
100
AcDbSpline
 70
8
 71
3
 72
8
 73
4
 74
0
 40
0
 40
0
 40
0
 40
0
 40
1
 40
1
 40
1
 40
1
 10
214.726540
 20
94.063340
 30
0.0
 10
214.685273
 20
94.003407
 30
0.0
 10
214.654440
 20
93.939383
 30
0.0
 10
214.634040
 20
93.871270
 30
0.0
  0
SPLINE
  5
167
100
AcDbEntity
  8
0
 62
7
100
AcDbSpline
 70
8
 71
3
 72
8
 73
4
 74
0
 40
0
 40
0
 40
0
 40
0
 40
1
 40
1
 40
1
 40
1
 10
214.634040
 20
93.871270
 30
0.0
 10
214.613640
 20
93.803723
 30
0.0
 10
214.603440
 20
93.731773
 30
0.0
 10
214.603440
 20
93.655420
 30
0.0
  0
SPLINE
  5
168
100
AcDbEntity
  8
0
 62
7
100
AcDbSpline
 70
8
 71
3
 72
8
 73
4
 74
0
 40
0
 40
0
 40
0
 40
0
 40
1
 40
1
 40
1
 40
1
 10
214.603440
 20
93.655420
 30
0.0
 10
214.603440
 20
93.505053
 30
0.0
 10
214.637510
 20
93.389930
 30
0.0
 10
214.705650
 20
93.310050
 30
0.0
  0
SPLINE
  5
169
100
AcDbEntity
  8
0
 62
7
100
AcDbSpline
 70
8
 71
3
 72
8
 73
4
 74
0
 40
0
 40
0
 40
0
 40
0
 40
1
 40
1
 40
1
 40
1
 10
214.705650
 20
93.310050
 30
0.0
 10
214.773357
 20
93.230170
 30
0.0
 10
214.871447
 20
93.190230
 30
0.0
 10
214.999920
 20
93.190230
 30
0.0
  0
SPLINE
  5
16a
100
AcDbEntity
  8
0
 62
7
100
AcDbSpline
 70
8
 71
3
 72
8
 73
4
 74
0
 40
0
 40
0
 40
0
 40
0
 40
1
 40
1
 40
1
 40
1
 10
214.999920
 20
93.190230
 30
0.0
 10
215.127953
 20
93.190230
 30
0.0
 10
215.226040
 20
93.230170
 30
0.0
 10
215.294180
 20
93.310050
 30
0.0
  0
SPLINE
  5
16b
100
AcDbEntity
  8
0
 62
7
100
AcDbSpline
 70
8
 71
3
 72
8
 73
4
 74
0
 40
0
 40
0
 40
0
 40
0
 40
1
 40
1
 40
1
 40
1
 10
215.294180
 20
93.310050
 30
0.0
 10
215.361887
 20
93.389930
 30
0.0
 10
215.395740
 20
93.505053
 30
0.0
 10
215.395740
 20
93.655420
 30
0.0
  0
SPLINE
  5
16c
100
AcDbEntity
  8
0
 62
7
100
AcDbSpline
 70
8
 71
3
 72
8
 73
4
 74
0
 40
0
 40
0
 40
0
 40
0
 40
1
 40
1
 40
1
 40
1
 10
215.395740
 20
93.655420
 30
0.0
 10
215.395740
 20
93.731773
 30
0.0
 10
215.385540
 20
93.803723
 30
0.0
 10
215.365140
 20
93.871270
 30
0.0
  0
SPLINE
  5
16d
100
AcDbEntity
  8
0
 62
7
100
AcDbSpline
 70
8
 71
3
 72
8
 73
4
 74
0
 40
0
 40
0
 40
0
 40
0
 40
1
 40
1
 40
1
 40
1
 10
215.365140
 20
93.871270
 30
0.0
 10
215.344740
 20
93.939403
 30
0.0
 10
215.313940
 20
94.003427
 30
0.0
 10
215.272740
 20
94.063340
 30
0.0
  0
LWPOLYLINE
  5
16e
100
AcDbEntity
  8
0
 62
7
100
AcDbPolyline
 90
2
 70
0
 10
214.587870
 20
94.063340
 30
0.0
 10
214.726540
 20
94.063340
 30
0.0
  0
SPLINE
  5
16f
100
AcDbEntity
  8
0
 62
7
100
AcDbSpline
 70
8
 71
3
 72
8
 73
4
 74
0
 40
0
 40
0
 40
0
 40
0
 40
1
 40
1
 40
1
 40
1
 10
215.410100
 20
94.063340
 30
0.0
 10
215.441367
 20
94.001073
 30
0.0
 10
215.464800
 20
93.934993
 30
0.0
 10
215.480400
 20
93.865100
 30
0.0
  0
SPLINE
  5
170
100
AcDbEntity
  8
0
 62
7
100
AcDbSpline
 70
8
 71
3
 72
8
 73
4
 74
0
 40
0
 40
0
 40
0
 40
0
 40
1
 40
1
 40
1
 40
1
 10
215.480400
 20
93.865100
 30
0.0
 10
215.496000
 20
93.795793
 30
0.0
 10
215.503800
 20
93.722373
 30
0.0
 10
215.503800
 20
93.644840
 30
0.0
  0
SPLINE
  5
171
100
AcDbEntity
  8
0
 62
7
100
AcDbSpline
 70
8
 71
3
 72
8
 73
4
 74
0
 40
0
 40
0
 40
0
 40
0
 40
1
 40
1
 40
1
 40
1
 10
215.503800
 20
93.644840
 30
0.0
 10
215.503800
 20
93.445727
 30
0.0
 10
215.458880
 20
93.288903
 30
0.0
 10
215.369040
 20
93.174370
 30
0.0
  0
SPLINE
  5
172
100
AcDbEntity
  8
0
 62
7
100
AcDbSpline
 70
8
 71
3
 72
8
 73
4
 74
0
 40
0
 40
0
 40
0
 40
0
 40
1
 40
1
 40
1
 40
1
 10
215.369040
 20
93.174370
 30
0.0
 10
215.278760
 20
93.059837
 30
0.0
 10
215.155717
 20
93.002570
 30
0.0
 10
214.999910
 20
93.002570
 30
0.0
  0
SPLINE
  5
173
100
AcDbEntity
  8
0
 62
7
100
AcDbSpline
 70
8
 71
3
 72
8
 73
4
 74
0
 40
0
 40
0
 40
0
 40
0
 40
1
 40
1
 40
1
 40
1
 10
214.999910
 20
93.002570
 30
0.0
 10
214.843663
 20
93.002570
 30
0.0
 10
214.720617
 20
93.059837
 30
0.0
 10
214.630770
 20
93.174370
 30
0.0
  0
SPLINE
  5
174
100
AcDbEntity
  8
0
 62
7
100
AcDbSpline
 70
8
 71
3
 72
8
 73
4
 74
0
 40
0
 40
0
 40
0
 40
0
 40
1
 40
1
 40
1
 40
1
 10
214.630770
 20
93.174370
 30
0.0
 10
214.540497
 20
93.288903
 30
0.0
 10
214.495360
 20
93.445727
 30
0.0
 10
214.495360
 20
93.644840
 30
0.0
  0
SPLINE
  5
175
100
AcDbEntity
  8
0
 62
7
100
AcDbSpline
 70
8
 71
3
 72
8
 73
4
 74
0
 40
0
 40
0
 40
0
 40
0
 40
1
 40
1
 40
1
 40
1
 10
214.495360
 20
93.644840
 30
0.0
 10
214.495360
 20
93.723547
 30
0.0
 10
214.503160
 20
93.797557
 30
0.0
 10
214.518760
 20
93.866870
 30
0.0
  0
SPLINE
  5
176
100
AcDbEntity
  8
0
 62
7
100
AcDbSpline
 70
8
 71
3
 72
8
 73
4
 74
0
 40
0
 40
0
 40
0
 40
0
 40
1
 40
1
 40
1
 40
1
 10
214.518760
 20
93.866870
 30
0.0
 10
214.533960
 20
93.936763
 30
0.0
 10
214.556960
 20
94.002253
 30
0.0
 10
214.587760
 20
94.063340
 30
0.0
  0
LWPOLYLINE
  5
177
100
AcDbEntity
  8
0
 62
7
100
AcDbPolyline
 90
2
 70
0
 10
215.272740
 20
94.063340
 30
0.0
 10
215.410100
 20
94.063340
 30
0.0
  0
LWPOLYLINE
  5
178
100
AcDbEntity
  8
0
 62
7
100
AcDbPolyline
 90
2
 70
0
 10
214.587760
 20
94.063340
 30
0.0
 10
214.587870
 20
94.063340
 30
0.0
  0
SPLINE
  5
179
100
AcDbEntity
  8
0
 62
7
100
AcDbSpline
 70
8
 71
3
 72
8
 73
4
 74
0
 40
0
 40
0
 40
0
 40
0
 40
1
 40
1
 40
1
 40
1
 10
214.960900
 20
95.544360
 30
0.0
 10
214.974367
 20
95.629527
 30
0.0
 10
215.002367
 20
95.695900
 30
0.0
 10
215.044900
 20
95.743480
 30
0.0
  0
SPLINE
  5
17a
100
AcDbEntity
  8
0
 62
7
100
AcDbSpline
 70
8
 71
3
 72
8
 73
4
 74
0
 40
0
 40
0
 40
0
 40
0
 40
1
 40
1
 40
1
 40
1
 10
215.044900
 20
95.743480
 30
0.0
 10
215.087433
 20
95.791613
 30
0.0
 10
215.139947
 20
95.815680
 30
0.0
 10
215.202440
 20
95.815680
 30
0.0
  0
SPLINE
  5
17b
100
AcDbEntity
  8
0
 62
7
100
AcDbSpline
 70
8
 71
3
 72
8
 73
4
 74
0
 40
0
 40
0
 40
0
 40
0
 40
1
 40
1
 40
1
 40
1
 10
215.202440
 20
95.815680
 30
0.0
 10
215.298360
 20
95.815680
 30
0.0
 10
215.372580
 20
95.771040
 30
0.0
 10
215.425100
 20
95.681760
 30
0.0
  0
SPLINE
  5
17c
100
AcDbEntity
  8
0
 62
7
100
AcDbSpline
 70
8
 71
3
 72
8
 73
4
 74
0
 40
0
 40
0
 40
0
 40
0
 40
1
 40
1
 40
1
 40
1
 10
215.425100
 20
95.681760
 30
0.0
 10
215.477633
 20
95.592487
 30
0.0
 10
215.503900
 20
95.465617
 30
0.0
 10
215.503900
 20
95.301150
 30
0.0
  0
SPLINE
  5
17d
100
AcDbEntity
  8
0
 62
7
100
AcDbSpline
 70
8
 71
3
 72
8
 73
4
 74
0
 40
0
 40
0
 40
0
 40
0
 40
1
 40
1
 40
1
 40
1
 10
215.503900
 20
95.301150
 30
0.0
 10
215.503900
 20
95.245950
 30
0.0
 10
215.499767
 20
95.188977
 30
0.0
 10
215.491500
 20
95.130230
 30
0.0
  0
SPLINE
  5
17e
100
AcDbEntity
  8
0
 62
7
100
AcDbSpline
 70
8
 71
3
 72
8
 73
4
 74
0
 40
0
 40
0
 40
0
 40
0
 40
1
 40
1
 40
1
 40
1
 10
215.491500
 20
95.130230
 30
0.0
 10
215.483700
 20
95.072097
 30
0.0
 10
215.471767
 20
95.011893
 30
0.0
 10
215.455700
 20
94.949620
 30
0.0
  0
LWPOLYLINE
  5
17f
100
AcDbEntity
  8
0
 62
7
100
AcDbPolyline
 90
4
 70
1
 10
215.066370
 20
94.249240
 30
0.0
 10
215.066370
 20
94.724120
 30
0.0
 10
215.173140
 20
94.724120
 30
0.0
 10
215.173140
 20
94.249240
 30
0.0
  0
SPLINE
  5
180
100
AcDbEntity
  8
0
 62
7
100
AcDbSpline
 70
8
 71
3
 72
8
 73
4
 74
0
 40
0
 40
0
 40
0
 40
0
 40
1
 40
1
 40
1
 40
1
 10
215.328750
 20
94.949620
 30
0.0
 10
215.350017
 20
94.998953
 30
0.0
 10
215.366083
 20
95.052990
 30
0.0
 10
215.376950
 20
95.111730
 30
0.0
  0
SPLINE
  5
181
100
AcDbEntity
  8
0
 62
7
100
AcDbSpline
 70
8
 71
3
 72
8
 73
4
 74
0
 40
0
 40
0
 40
0
 40
0
 40
1
 40
1
 40
1
 40
1
 10
215.376950
 20
95.111730
 30
0.0
 10
215.387817
 20
95.170463
 30
0.0
 10
215.393250
 20
95.231843
 30
0.0
 10
215.393250
 20
95.295870
 30
0.0
  0
SPLINE
  5
182
100
AcDbEntity
  8
0
 62
7
100
AcDbSpline
 70
8
 71
3
 72
8
 73
4
 74
0
 40
0
 40
0
 40
0
 40
0
 40
1
 40
1
 40
1
 40
1
 10
215.393250
 20
95.295870
 30
0.0
 10
215.393250
 20
95.407470
 30
0.0
 10
215.376983
 20
95.492343
 30
0.0
 10
215.344450
 20
95.550490
 30
0.0
  0
SPLINE
  5
183
100
AcDbEntity
  8
0
 62
7
100
AcDbSpline
 70
8
 71
3
 72
8
 73
4
 74
0
 40
0
 40
0
 40
0
 40
0
 40
1
 40
1
 40
1
 40
1
 10
215.344450
 20
95.550490
 30
0.0
 10
215.311917
 20
95.609223
 30
0.0
 10
215.264607
 20
95.638590
 30
0.0
 10
215.202520
 20
95.638590
 30
0.0
  0
SPLINE
  5
184
100
AcDbEntity
  8
0
 62
7
100
AcDbSpline
 70
8
 71
3
 72
8
 73
4
 74
0
 40
0
 40
0
 40
0
 40
0
 40
1
 40
1
 40
1
 40
1
 10
215.202520
 20
95.638590
 30
0.0
 10
215.145253
 20
95.638590
 30
0.0
 10
215.100550
 20
95.611290
 30
0.0
 10
215.068410
 20
95.556690
 30
0.0
  0
SPLINE
  5
185
100
AcDbEntity
  8
0
 62
7
100
AcDbSpline
 70
8
 71
3
 72
8
 73
4
 74
0
 40
0
 40
0
 40
0
 40
0
 40
1
 40
1
 40
1
 40
1
 10
215.068410
 20
95.556690
 30
0.0
 10
215.035877
 20
95.502623
 30
0.0
 10
215.019610
 20
95.427147
 30
0.0
 10
215.019610
 20
95.330260
 30
0.0
  0
LWPOLYLINE
  5
186
100
AcDbEntity
  8
0
 62
7
100
AcDbPolyline
 90
2
 70
0
 10
215.455700
 20
94.949620
 30
0.0
 10
215.328750
 20
94.949620
 30
0.0
  0
SPLINE
  5
187
100
AcDbEntity
  8
0
 62
7
100
AcDbSpline
 70
8
 71
3
 72
8
 73
4
 74
0
 40
0
 40
0
 40
0
 40
0
 40
1
 40
1
 40
1
 40
1
 10
214.911540
 20
95.337310
 30
0.0
 10
214.911540
 20
95.424823
 30
0.0
 10
214.898740
 20
95.491780
 30
0.0
 10
214.873140
 20
95.538180
 30
0.0
  0
SPLINE
  5
188
100
AcDbEntity
  8
0
 62
7
100
AcDbSpline
 70
8
 71
3
 72
8
 73
4
 74
0
 40
0
 40
0
 40
0
 40
0
 40
1
 40
1
 40
1
 40
1
 10
214.873140
 20
95.538180
 30
0.0
 10
214.847073
 20
95.584580
 30
0.0
 10
214.809747
 20
95.607780
 30
0.0
 10
214.761160
 20
95.607780
 30
0.0
  0
SPLINE
  5
189
100
AcDbEntity
  8
0
 62
7
100
AcDbSpline
 70
8
 71
3
 72
8
 73
4
 74
0
 40
0
 40
0
 40
0
 40
0
 40
1
 40
1
 40
1
 40
1
 10
214.761160
 20
95.607780
 30
0.0
 10
214.711227
 20
95.607780
 30
0.0
 10
214.673033
 20
95.583713
 30
0.0
 10
214.646580
 20
95.535580
 30
0.0
  0
SPLINE
  5
18a
100
AcDbEntity
  8
0
 62
7
100
AcDbSpline
 70
8
 71
3
 72
8
 73
4
 74
0
 40
0
 40
0
 40
0
 40
0
 40
1
 40
1
 40
1
 40
1
 10
214.646580
 20
95.535580
 30
0.0
 10
214.619647
 20
95.487980
 30
0.0
 10
214.606180
 20
95.419553
 30
0.0
 10
214.606180
 20
95.330300
 30
0.0
  0
SPLINE
  5
18b
100
AcDbEntity
  8
0
 62
7
100
AcDbSpline
 70
8
 71
3
 72
8
 73
4
 74
0
 40
0
 40
0
 40
0
 40
0
 40
1
 40
1
 40
1
 40
1
 10
214.606180
 20
95.330300
 30
0.0
 10
214.606180
 20
95.281567
 30
0.0
 10
214.610080
 20
95.229290
 30
0.0
 10
214.617880
 20
95.173470
 30
0.0
  0
SPLINE
  5
18c
100
AcDbEntity
  8
0
 62
7
100
AcDbSpline
 70
8
 71
3
 72
8
 73
4
 74
0
 40
0
 40
0
 40
0
 40
0
 40
1
 40
1
 40
1
 40
1
 10
214.617880
 20
95.173470
 30
0.0
 10
214.625680
 20
95.117670
 30
0.0
 10
214.637847
 20
95.056293
 30
0.0
 10
214.654380
 20
94.989340
 30
0.0
  0
LWPOLYLINE
  5
18d
100
AcDbEntity
  8
0
 62
7
100
AcDbPolyline
 90
4
 70
0
 10
215.019610
 20
95.330260
 30
0.0
 10
215.019610
 20
95.176960
 30
0.0
 10
214.911540
 20
95.176960
 30
0.0
 10
214.911540
 20
95.337310
 30
0.0
  0
SPLINE
  5
18e
100
AcDbEntity
  8
0
 62
7
100
AcDbSpline
 70
8
 71
3
 72
8
 73
4
 74
0
 40
0
 40
0
 40
0
 40
0
 40
1
 40
1
 40
1
 40
1
 10
214.537200
 20
94.989340
 30
0.0
 10
214.523333
 20
95.056887
 30
0.0
 10
214.512933
 20
95.120027
 30
0.0
 10
214.506000
 20
95.178760
 30
0.0
  0
SPLINE
  5
18f
100
AcDbEntity
  8
0
 62
7
100
AcDbSpline
 70
8
 71
3
 72
8
 73
4
 74
0
 40
0
 40
0
 40
0
 40
0
 40
1
 40
1
 40
1
 40
1
 10
214.506000
 20
95.178760
 30
0.0
 10
214.499067
 20
95.238093
 30
0.0
 10
214.495600
 20
95.293893
 30
0.0
 10
214.495600
 20
95.346160
 30
0.0
  0
SPLINE
  5
190
100
AcDbEntity
  8
0
 62
7
100
AcDbSpline
 70
8
 71
3
 72
8
 73
4
 74
0
 40
0
 40
0
 40
0
 40
0
 40
1
 40
1
 40
1
 40
1
 10
214.495600
 20
95.346160
 30
0.0
 10
214.495600
 20
95.481253
 30
0.0
 10
214.518400
 20
95.588153
 30
0.0
 10
214.564000
 20
95.666860
 30
0.0
  0
SPLINE
  5
191
100
AcDbEntity
  8
0
 62
7
100
AcDbSpline
 70
8
 71
3
 72
8
 73
4
 74
0
 40
0
 40
0
 40
0
 40
0
 40
1
 40
1
 40
1
 40
1
 10
214.564000
 20
95.666860
 30
0.0
 10
214.609133
 20
95.745560
 30
0.0
 10
214.670330
 20
95.784910
 30
0.0
 10
214.747590
 20
95.784910
 30
0.0
  0
SPLINE
  5
192
100
AcDbEntity
  8
0
 62
7
100
AcDbSpline
 70
8
 71
3
 72
8
 73
4
 74
0
 40
0
 40
0
 40
0
 40
0
 40
1
 40
1
 40
1
 40
1
 10
214.747590
 20
95.784910
 30
0.0
 10
214.801390
 20
95.784910
 30
0.0
 10
214.846960
 20
95.764077
 30
0.0
 10
214.884300
 20
95.722410
 30
0.0
  0
SPLINE
  5
193
100
AcDbEntity
  8
0
 62
7
100
AcDbSpline
 70
8
 71
3
 72
8
 73
4
 74
0
 40
0
 40
0
 40
0
 40
0
 40
1
 40
1
 40
1
 40
1
 10
214.884300
 20
95.722410
 30
0.0
 10
214.921167
 20
95.680743
 30
0.0
 10
214.946767
 20
95.621420
 30
0.0
 10
214.961100
 20
95.544440
 30
0.0
  0
LWPOLYLINE
  5
194
100
AcDbEntity
  8
0
 62
7
100
AcDbPolyline
 90
2
 70
0
 10
214.654380
 20
94.989340
 30
0.0
 10
214.537200
 20
94.989340
 30
0.0
  0
LWPOLYLINE
  5
195
100
AcDbEntity
  8
0
 62
7
100
AcDbPolyline
 90
2
 70
0
 10
214.961100
 20
95.544440
 30
0.0
 10
214.960900
 20
95.544360
 30
0.0
  0
LWPOLYLINE
  5
196
100
AcDbEntity
  8
0
 62
7
100
AcDbPolyline
 90
11
 70
1
 10
215.374310
 20
96.183990
 30
0.0
 10
215.374310
 20
96.474740
 30
0.0
 10
214.632790
 20
96.474740
 30
0.0
 10
214.679690
 20
96.158440
 30
0.0
 10
214.559900
 20
96.158440
 30
0.0
 10
214.513000
 20
96.472970
 30
0.0
 10
214.513000
 20
96.650940
 30
0.0
 10
215.374310
 20
96.650940
 30
0.0
 10
215.374310
 20
96.941690
 30
0.0
 10
215.485000
 20
96.941690
 30
0.0
 10
215.485000
 20
96.183990
 30
0.0
  0
LWPOLYLINE
  5
197
100
AcDbEntity
  8
0
 62
7
100
AcDbPolyline
 90
4
 70
1
 10
215.066370
 20
97.196310
 30
0.0
 10
215.066370
 20
97.671180
 30
0.0
 10
215.173140
 20
97.671180
 30
0.0
 10
215.173140
 20
97.196310
 30
0.0
  0
LWPOLYLINE
  5
198
100
AcDbEntity
  8
0
 62
7
100
AcDbPolyline
 90
13
 70
1
 10
214.513000
 20
97.936380
 30
0.0
 10
214.513000
 20
98.201570
 30
0.0
 10
215.174440
 20
98.537240
 30
0.0
 10
214.513000
 20
98.874680
 30
0.0
 10
214.513000
 20
99.139870
 30
0.0
 10
215.485000
 20
99.139870
 30
0.0
 10
215.485000
 20
98.966310
 30
0.0
 10
214.631510
 20
98.966310
 30
0.0
 10
215.298160
 20
98.627110
 30
0.0
 10
215.298160
 20
98.448260
 30
0.0
 10
214.631510
 20
98.109060
 30
0.0
 10
215.485000
 20
98.109060
 30
0.0
 10
215.485000
 20
97.936380
 30
0.0
  0
LWPOLYLINE
  5
199
100
AcDbEntity
  8
0
 62
7
100
AcDbPolyline
 90
4
 70
1
 10
215.066370
 20
99.404190
 30
0.0
 10
215.066370
 20
99.879060
 30
0.0
 10
215.173140
 20
99.879060
 30
0.0
 10
215.173140
 20
99.404190
 30
0.0
  0
LWPOLYLINE
  5
19a
100
AcDbEntity
  8
0
 62
7
100
AcDbPolyline
 90
11
 70
1
 10
215.374310
 20
100.190950
 30
0.0
 10
215.374310
 20
100.481690
 30
0.0
 10
214.632790
 20
100.481690
 30
0.0
 10
214.679690
 20
100.165400
 30
0.0
 10
214.559900
 20
100.165400
 30
0.0
 10
214.513000
 20
100.479930
 30
0.0
 10
214.513000
 20
100.657900
 30
0.0
 10
215.374310
 20
100.657900
 30
0.0
 10
215.374310
 20
100.948640
 30
0.0
 10
215.485000
 20
100.948640
 30
0.0
 10
215.485000
 20
100.190950
 30
0.0
  0
SPLINE
  5
19b
100
AcDbEntity
  8
0
 62
7
100
AcDbSpline
 70
8
 71
3
 72
8
 73
4
 74
0
 40
0
 40
0
 40
0
 40
0
 40
1
 40
1
 40
1
 40
1
 10
215.374330
 20
101.247310
 30
0.0
 10
215.322663
 20
101.314857
 30
0.0
 10
215.253437
 20
101.406780
 30
0.0
 10
215.166650
 20
101.523080
 30
0.0
  0
SPLINE
  5
19c
100
AcDbEntity
  8
0
 62
7
100
AcDbSpline
 70
8
 71
3
 72
8
 73
4
 74
0
 40
0
 40
0
 40
0
 40
0
 40
1
 40
1
 40
1
 40
1
 10
215.166650
 20
101.523080
 30
0.0
 10
215.079410
 20
101.639960
 30
0.0
 10
215.023203
 20
101.713380
 30
0.0
 10
214.998030
 20
101.743340
 30
0.0
  0
SPLINE
  5
19d
100
AcDbEntity
  8
0
 62
7
100
AcDbSpline
 70
8
 71
3
 72
8
 73
4
 74
0
 40
0
 40
0
 40
0
 40
0
 40
1
 40
1
 40
1
 40
1
 10
214.998030
 20
101.743340
 30
0.0
 10
214.950697
 20
101.800340
 30
0.0
 10
214.910767
 20
101.839987
 30
0.0
 10
214.878240
 20
101.862280
 30
0.0
  0
SPLINE
  5
19e
100
AcDbEntity
  8
0
 62
7
100
AcDbSpline
 70
8
 71
3
 72
8
 73
4
 74
0
 40
0
 40
0
 40
0
 40
0
 40
1
 40
1
 40
1
 40
1
 10
214.878240
 20
101.862280
 30
0.0
 10
214.845240
 20
101.885213
 30
0.0
 10
214.812907
 20
101.896680
 30
0.0
 10
214.781240
 20
101.896680
 30
0.0
  0
SPLINE
  5
19f
100
AcDbEntity
  8
0
 62
7
100
AcDbSpline
 70
8
 71
3
 72
8
 73
4
 74
0
 40
0
 40
0
 40
0
 40
0
 40
1
 40
1
 40
1
 40
1
 10
214.781240
 20
101.896680
 30
0.0
 10
214.729573
 20
101.896680
 30
0.0
 10
214.687473
 20
101.872013
 30
0.0
 10
214.654940
 20
101.822680
 30
0.0
  0
SPLINE
  5
1a0
100
AcDbEntity
  8
0
 62
7
100
AcDbSpline
 70
8
 71
3
 72
8
 73
4
 74
0
 40
0
 40
0
 40
0
 40
0
 40
1
 40
1
 40
1
 40
1
 10
214.654940
 20
101.822680
 30
0.0
 10
214.622407
 20
101.773947
 30
0.0
 10
214.606140
 20
101.710220
 30
0.0
 10
214.606140
 20
101.631500
 30
0.0
  0
SPLINE
  5
1a1
100
AcDbEntity
  8
0
 62
7
100
AcDbSpline
 70
8
 71
3
 72
8
 73
4
 74
0
 40
0
 40
0
 40
0
 40
0
 40
1
 40
1
 40
1
 40
1
 10
214.606140
 20
101.631500
 30
0.0
 10
214.606140
 20
101.575700
 30
0.0
 10
214.613307
 20
101.516670
 30
0.0
 10
214.627640
 20
101.454410
 30
0.0
  0
SPLINE
  5
1a2
100
AcDbEntity
  8
0
 62
7
100
AcDbSpline
 70
8
 71
3
 72
8
 73
4
 74
0
 40
0
 40
0
 40
0
 40
0
 40
1
 40
1
 40
1
 40
1
 10
214.627640
 20
101.454410
 30
0.0
 10
214.641973
 20
101.392743
 30
0.0
 10
214.663673
 20
101.326663
 30
0.0
 10
214.692740
 20
101.256170
 30
0.0
  0
LWPOLYLINE
  5
1a3
100
AcDbEntity
  8
0
 62
7
100
AcDbPolyline
 90
5
 70
0
 10
215.374310
 20
101.461410
 30
0.0
 10
215.374310
 20
102.082540
 30
0.0
 10
215.485000
 20
102.082540
 30
0.0
 10
215.485000
 20
101.247310
 30
0.0
 10
215.374330
 20
101.247310
 30
0.0
  0
SPLINE
  5
1a4
100
AcDbEntity
  8
0
 62
7
100
AcDbSpline
 70
8
 71
3
 72
8
 73
4
 74
0
 40
0
 40
0
 40
0
 40
0
 40
1
 40
1
 40
1
 40
1
 10
214.559930
 20
101.256170
 30
0.0
 10
214.538663
 20
101.327830
 30
0.0
 10
214.522597
 20
101.394790
 30
0.0
 10
214.511730
 20
101.457050
 30
0.0
  0
SPLINE
  5
1a5
100
AcDbEntity
  8
0
 62
7
100
AcDbSpline
 70
8
 71
3
 72
8
 73
4
 74
0
 40
0
 40
0
 40
0
 40
0
 40
1
 40
1
 40
1
 40
1
 10
214.511730
 20
101.457050
 30
0.0
 10
214.500863
 20
101.519317
 30
0.0
 10
214.495430
 20
101.576290
 30
0.0
 10
214.495430
 20
101.627970
 30
0.0
  0
SPLINE
  5
1a6
100
AcDbEntity
  8
0
 62
7
100
AcDbSpline
 70
8
 71
3
 72
8
 73
4
 74
0
 40
0
 40
0
 40
0
 40
0
 40
1
 40
1
 40
1
 40
1
 10
214.495430
 20
101.627970
 30
0.0
 10
214.495430
 20
101.764237
 30
0.0
 10
214.520597
 20
101.872900
 30
0.0
 10
214.570930
 20
101.953960
 30
0.0
  0
SPLINE
  5
1a7
100
AcDbEntity
  8
0
 62
7
100
AcDbSpline
 70
8
 71
3
 72
8
 73
4
 74
0
 40
0
 40
0
 40
0
 40
0
 40
1
 40
1
 40
1
 40
1
 10
214.570930
 20
101.953960
 30
0.0
 10
214.621263
 20
102.035013
 30
0.0
 10
214.688537
 20
102.075540
 30
0.0
 10
214.772750
 20
102.075540
 30
0.0
  0
SPLINE
  5
1a8
100
AcDbEntity
  8
0
 62
7
100
AcDbSpline
 70
8
 71
3
 72
8
 73
4
 74
0
 40
0
 40
0
 40
0
 40
0
 40
1
 40
1
 40
1
 40
1
 10
214.772750
 20
102.075540
 30
0.0
 10
214.812683
 20
102.075540
 30
0.0
 10
214.850660
 20
102.065273
 30
0.0
 10
214.886680
 20
102.044740
 30
0.0
  0
SPLINE
  5
1a9
100
AcDbEntity
  8
0
 62
7
100
AcDbSpline
 70
8
 71
3
 72
8
 73
4
 74
0
 40
0
 40
0
 40
0
 40
0
 40
1
 40
1
 40
1
 40
1
 10
214.886680
 20
102.044740
 30
0.0
 10
214.922280
 20
102.024807
 30
0.0
 10
214.964380
 20
101.988097
 30
0.0
 10
215.012980
 20
101.934610
 30
0.0
  0
SPLINE
  5
1aa
100
AcDbEntity
  8
0
 62
7
100
AcDbSpline
 70
8
 71
3
 72
8
 73
4
 74
0
 40
0
 40
0
 40
0
 40
0
 40
1
 40
1
 40
1
 40
1
 10
215.012980
 20
101.934610
 30
0.0
 10
215.025580
 20
101.919943
 30
0.0
 10
215.062037
 20
101.873250
 30
0.0
 10
215.122350
 20
101.794530
 30
0.0
  0
SPLINE
  5
1ab
100
AcDbEntity
  8
0
 62
7
100
AcDbSpline
 70
8
 71
3
 72
8
 73
4
 74
0
 40
0
 40
0
 40
0
 40
0
 40
1
 40
1
 40
1
 40
1
 10
215.122350
 20
101.794530
 30
0.0
 10
215.182217
 20
101.715823
 30
0.0
 10
215.266200
 20
101.604813
 30
0.0
 10
215.374300
 20
101.461500
 30
0.0
  0
LWPOLYLINE
  5
1ac
100
AcDbEntity
  8
0
 62
7
100
AcDbPolyline
 90
2
 70
0
 10
214.692740
 20
101.256170
 30
0.0
 10
214.559930
 20
101.256170
 30
0.0
  0
LWPOLYLINE
  5
1ad
100
AcDbEntity
  8
0
 62
7
100
AcDbPolyline
 90
1
 70
1
 10
215.374300
 20
101.461500
 30
0.0
  0
LWPOLYLINE
  5
1ae
100
AcDbEntity
  8
0
 62
1
100
AcDbPolyline
 90
4
 70
1
 10
192.250000
 20
126.757200
 30
0.0
 10
210.250000
 20
126.757200
 30
0.0
 10
210.250000
 20
103.257200
 30
0.0
 10
192.250000
 20
103.257200
 30
0.0
  0
LWPOLYLINE
  5
1af
100
AcDbEntity
  8
0
 62
7
100
AcDbPolyline
 90
2
 70
0
 10
206.535000
 20
88.287200
 30
0.0
 10
206.535000
 20
97.227200
 30
0.0
  0
LWPOLYLINE
  5
1b0
100
AcDbEntity
  8
0
 62
7
100
AcDbPolyline
 90
2
 70
0
 10
213.835000
 20
97.227200
 30
0.0
 10
206.535000
 20
97.227200
 30
0.0
  0
LWPOLYLINE
  5
1b1
100
AcDbEntity
  8
0
 62
7
100
AcDbPolyline
 90
2
 70
0
 10
213.835000
 20
88.287200
 30
0.0
 10
206.535000
 20
88.287200
 30
0.0
  0
LWPOLYLINE
  5
1b2
100
AcDbEntity
  8
0
 62
7
100
AcDbPolyline
 90
2
 70
0
 10
213.835000
 20
88.287200
 30
0.0
 10
213.835000
 20
97.227200
 30
0.0
  0
SPLINE
  5
1b3
100
AcDbEntity
  8
0
 62
7
100
AcDbSpline
 70
8
 71
3
 72
8
 73
4
 74
0
 40
0
 40
0
 40
0
 40
0
 40
1
 40
1
 40
1
 40
1
 10
182.650000
 20
96.684200
 30
0.0
 10
182.649985
 20
96.954610
 30
0.0
 10
182.540461
 20
97.213487
 30
0.0
 10
182.346400
 20
97.401800
 30
0.0
  0
LWPOLYLINE
  5
1b4
100
AcDbEntity
  8
0
 62
7
100
AcDbPolyline
 90
2
 70
0
 10
136.684200
 20
113.507200
 30
0.0
 10
165.344600
 20
113.507200
 30
0.0
  0
SPLINE
  5
1b5
100
AcDbEntity
  8
0
 62
7
100
AcDbSpline
 70
8
 71
3
 72
8
 73
4
 74
0
 40
0
 40
0
 40
0
 40
0
 40
1
 40
1
 40
1
 40
1
 10
121.565800
 20
98.257200
 30
0.0
 10
121.842800
 20
98.257200
 30
0.0
 10
122.107392
 20
98.372096
 30
0.0
 10
122.296500
 20
98.574500
 30
0.0
  0
SPLINE
  5
1b6
100
AcDbEntity
  8
0
 62
7
100
AcDbSpline
 70
8
 71
3
 72
8
 73
4
 74
0
 40
0
 40
0
 40
0
 40
0
 40
1
 40
1
 40
1
 40
1
 10
136.684200
 20
113.507200
 30
0.0
 10
136.407200
 20
113.507200
 30
0.0
 10
136.142608
 20
113.392304
 30
0.0
 10
135.953500
 20
113.189900
 30
0.0
  0
SPLINE
  5
1b7
100
AcDbEntity
  8
0
 62
7
100
AcDbSpline
 70
8
 71
3
 72
8
 73
4
 74
0
 40
0
 40
0
 40
0
 40
0
 40
1
 40
1
 40
1
 40
1
 10
201.318300
 20
81.757200
 30
0.0
 10
200.767768
 20
81.757206
 30
0.0
 10
200.320777
 20
81.312227
 30
0.0
 10
200.318300
 20
80.761700
 30
0.0
  0
LWPOLYLINE
  5
1b8
100
AcDbEntity
  8
0
 62
7
100
AcDbPolyline
 90
2
 70
0
 10
114.868600
 20
136.446900
 30
0.0
 10
88.333100
 20
124.274700
 30
0.0
  0
SPLINE
  5
1b9
100
AcDbEntity
  8
0
 62
7
100
AcDbSpline
 70
8
 71
3
 72
8
 73
4
 74
0
 40
0
 40
0
 40
0
 40
0
 40
1
 40
1
 40
1
 40
1
 10
182.650000
 20
65.020500
 30
0.0
 10
182.650003
 20
64.755824
 30
0.0
 10
182.754935
 20
64.501944
 30
0.0
 10
182.941800
 20
64.314500
 30
0.0
  0
SPLINE
  5
1ba
100
AcDbEntity
  8
0
 62
7
100
AcDbSpline
 70
8
 71
3
 72
8
 73
4
 74
0
 40
0
 40
0
 40
0
 40
0
 40
1
 40
1
 40
1
 40
1
 10
212.700000
 20
81.757200
 30
0.0
 10
212.965216
 20
81.757200
 30
0.0
 10
213.219570
 20
81.862557
 30
0.0
 10
213.407107
 20
82.050093
 30
0.0
  0
SPLINE
  5
1bb
100
AcDbEntity
  8
0
 62
7
100
AcDbSpline
 70
8
 71
3
 72
8
 73
4
 74
0
 40
0
 40
0
 40
0
 40
0
 40
1
 40
1
 40
1
 40
1
 10
213.407107
 20
82.050093
 30
0.0
 10
213.594643
 20
82.237630
 30
0.0
 10
213.700000
 20
82.491984
 30
0.0
 10
213.700000
 20
82.757200
 30
0.0
  0
SPLINE
  5
1bc
100
AcDbEntity
  8
0
 62
7
100
AcDbSpline
 70
8
 71
3
 72
8
 73
4
 74
0
 40
0
 40
0
 40
0
 40
0
 40
1
 40
1
 40
1
 40
1
 10
115.143000
 20
136.527800
 30
0.0
 10
115.048128
 20
136.514128
 30
0.0
 10
114.955715
 20
136.486882
 30
0.0
 10
114.868600
 20
136.446900
 30
0.0
  0
LWPOLYLINE
  5
1bd
100
AcDbEntity
  8
0
 62
7
100
AcDbPolyline
 90
2
 70
0
 10
198.906100
 20
49.638700
 30
0.0
 10
209.878900
 20
59.451700
 30
0.0
  0
SPLINE
  5
1be
100
AcDbEntity
  8
0
 62
7
100
AcDbSpline
 70
8
 71
3
 72
8
 73
4
 74
0
 40
0
 40
0
 40
0
 40
0
 40
1
 40
1
 40
1
 40
1
 10
197.531300
 20
49.678100
 30
0.0
 10
197.906356
 20
49.301884
 30
0.0
 10
198.510114
 20
49.284581
 30
0.0
 10
198.906100
 20
49.638700
 30
0.0
  0
LWPOLYLINE
  5
1bf
100
AcDbEntity
  8
0
 62
7
100
AcDbPolyline
 90
2
 70
0
 10
213.700000
 20
82.757200
 30
0.0
 10
213.700000
 20
126.207200
 30
0.0
  0
LWPOLYLINE
  5
1c0
100
AcDbEntity
  8
0
 62
7
100
AcDbPolyline
 90
2
 70
0
 10
182.650000
 20
96.684200
 30
0.0
 10
182.650000
 20
65.020500
 30
0.0
  0
LWPOLYLINE
  5
1c1
100
AcDbEntity
  8
0
 62
7
100
AcDbPolyline
 90
2
 70
0
 10
201.318300
 20
81.757200
 30
0.0
 10
212.700000
 20
81.757200
 30
0.0
  0
LWPOLYLINE
  5
1c2
100
AcDbEntity
  8
0
 62
7
100
AcDbPolyline
 90
2
 70
0
 10
87.750000
 20
123.365700
 30
0.0
 10
87.750000
 20
99.257200
 30
0.0
  0
SPLINE
  5
1c3
100
AcDbEntity
  8
0
 62
7
100
AcDbSpline
 70
8
 71
3
 72
8
 73
4
 74
0
 40
0
 40
0
 40
0
 40
0
 40
1
 40
1
 40
1
 40
1
 10
180.621400
 20
127.278500
 30
0.0
 10
180.739382
 20
127.231390
 30
0.0
 10
180.865260
 20
127.207191
 30
0.0
 10
180.992300
 20
127.207200
 30
0.0
  0
LWPOLYLINE
  5
1c4
100
AcDbEntity
  8
0
 62
7
100
AcDbPolyline
 90
2
 70
0
 10
210.065600
 20
60.718300
 30
0.0
 10
200.447900
 20
76.465100
 30
0.0
  0
LWPOLYLINE
  5
1c5
100
AcDbEntity
  8
0
 62
7
100
AcDbPolyline
 90
2
 70
0
 10
122.296500
 20
98.574500
 30
0.0
 10
135.953500
 20
113.189900
 30
0.0
  0
LWPOLYLINE
  5
1c6
100
AcDbEntity
  8
0
 62
7
100
AcDbPolyline
 90
2
 70
0
 10
180.621400
 20
127.278500
 30
0.0
 10
146.498500
 20
140.907900
 30
0.0
  0
SPLINE
  5
1c7
100
AcDbEntity
  8
0
 62
7
100
AcDbSpline
 70
8
 71
3
 72
8
 73
4
 74
0
 40
0
 40
0
 40
0
 40
0
 40
1
 40
1
 40
1
 40
1
 10
146.498500
 20
140.907900
 30
0.0
 10
146.335688
 20
140.972944
 30
0.0
 10
146.158639
 20
140.994049
 30
0.0
 10
145.985100
 20
140.969100
 30
0.0
  0
SPLINE
  5
1c8
100
AcDbEntity
  8
0
 62
7
100
AcDbSpline
 70
8
 71
3
 72
8
 73
4
 74
0
 40
0
 40
0
 40
0
 40
0
 40
1
 40
1
 40
1
 40
1
 10
213.700000
 20
126.207200
 30
0.0
 10
213.700000
 20
126.472416
 30
0.0
 10
213.594643
 20
126.726770
 30
0.0
 10
213.407107
 20
126.914307
 30
0.0
  0
SPLINE
  5
1c9
100
AcDbEntity
  8
0
 62
7
100
AcDbSpline
 70
8
 71
3
 72
8
 73
4
 74
0
 40
0
 40
0
 40
0
 40
0
 40
1
 40
1
 40
1
 40
1
 10
213.407107
 20
126.914307
 30
0.0
 10
213.219570
 20
127.101843
 30
0.0
 10
212.965216
 20
127.207200
 30
0.0
 10
212.700000
 20
127.207200
 30
0.0
  0
SPLINE
  5
1ca
100
AcDbEntity
  8
0
 62
7
100
AcDbSpline
 70
8
 71
3
 72
8
 73
4
 74
0
 40
0
 40
0
 40
0
 40
0
 40
1
 40
1
 40
1
 40
1
 10
87.750000
 20
99.257200
 30
0.0
 10
87.750000
 20
98.991984
 30
0.0
 10
87.855357
 20
98.737630
 30
0.0
 10
88.042893
 20
98.550093
 30
0.0
  0
SPLINE
  5
1cb
100
AcDbEntity
  8
0
 62
7
100
AcDbSpline
 70
8
 71
3
 72
8
 73
4
 74
0
 40
0
 40
0
 40
0
 40
0
 40
1
 40
1
 40
1
 40
1
 10
88.042893
 20
98.550093
 30
0.0
 10
88.230430
 20
98.362557
 30
0.0
 10
88.484784
 20
98.257200
 30
0.0
 10
88.750000
 20
98.257200
 30
0.0
  0
LWPOLYLINE
  5
1cc
100
AcDbEntity
  8
0
 62
7
100
AcDbPolyline
 90
2
 70
0
 10
182.941800
 20
64.314500
 30
0.0
 10
197.531200
 20
49.678100
 30
0.0
  0
SPLINE
  5
1cd
100
AcDbEntity
  8
0
 62
7
100
AcDbSpline
 70
8
 71
3
 72
8
 73
4
 74
0
 40
0
 40
0
 40
0
 40
0
 40
1
 40
1
 40
1
 40
1
 10
88.333100
 20
124.274600
 30
0.0
 10
87.977798
 20
124.111637
 30
0.0
 10
87.750020
 20
123.756592
 30
0.0
 10
87.750000
 20
123.365700
 30
0.0
  0
LWPOLYLINE
  5
1ce
100
AcDbEntity
  8
0
 62
7
100
AcDbPolyline
 90
2
 70
0
 10
200.301300
 20
76.990900
 30
0.0
 10
200.318300
 20
80.761700
 30
0.0
  0
LWPOLYLINE
  5
1cf
100
AcDbEntity
  8
0
 62
7
100
AcDbPolyline
 90
2
 70
0
 10
88.750000
 20
98.257200
 30
0.0
 10
121.565800
 20
98.257200
 30
0.0
  0
SPLINE
  5
1d0
100
AcDbEntity
  8
0
 62
7
100
AcDbSpline
 70
8
 71
3
 72
8
 73
4
 74
0
 40
0
 40
0
 40
0
 40
0
 40
1
 40
1
 40
1
 40
1
 10
166.040900
 20
113.224800
 30
0.0
 10
165.854346
 20
113.405886
 30
0.0
 10
165.604589
 20
113.507181
 30
0.0
 10
165.344600
 20
113.507200
 30
0.0
  0
SPLINE
  5
1d1
100
AcDbEntity
  8
0
 62
7
100
AcDbSpline
 70
8
 71
3
 72
8
 73
4
 74
0
 40
0
 40
0
 40
0
 40
0
 40
1
 40
1
 40
1
 40
1
 10
209.878900
 20
59.451700
 30
0.0
 10
210.238666
 20
59.773508
 30
0.0
 10
210.317212
 20
60.306373
 30
0.0
 10
210.065600
 20
60.718300
 30
0.0
  0
SPLINE
  5
1d2
100
AcDbEntity
  8
0
 62
7
100
AcDbSpline
 70
8
 71
3
 72
8
 73
4
 74
0
 40
0
 40
0
 40
0
 40
0
 40
1
 40
1
 40
1
 40
1
 10
200.301300
 20
76.990900
 30
0.0
 10
200.300460
 20
76.805430
 30
0.0
 10
200.351218
 20
76.623380
 30
0.0
 10
200.447900
 20
76.465100
 30
0.0
  0
LWPOLYLINE
  5
1d3
100
AcDbEntity
  8
0
 62
7
100
AcDbPolyline
 90
2
 70
0
 10
145.985100
 20
140.969100
 30
0.0
 10
115.143000
 20
136.527800
 30
0.0
  0
LWPOLYLINE
  5
1d4
100
AcDbEntity
  8
0
 62
7
100
AcDbPolyline
 90
2
 70
0
 10
212.700000
 20
127.207200
 30
0.0
 10
180.992300
 20
127.207200
 30
0.0
  0
LWPOLYLINE
  5
1d5
100
AcDbEntity
  8
0
 62
7
100
AcDbPolyline
 90
2
 70
0
 10
166.041000
 20
113.224800
 30
0.0
 10
182.346400
 20
97.401800
 30
0.0
  0
ENDSEC
  0
SECTION
  2
OBJECTS
  0
DICTIONARY
  5
C
330
0
100
AcDbDictionary
  3
ACAD_GROUP
350
D
  3
ACAD_MLINESTYLE
350
17
  0
DICTIONARY
  5
D
330
C
100
AcDbDictionary
  0
DICTIONARY
  5
1A
330
C
100
AcDbDictionary
  0
DICTIONARY
  5
17
330
C
100
AcDbDictionary
  3
STANDARD
350
18
  0
DICTIONARY
  5
19
330
C
100
AcDbDictionary
  0
ENDSEC
  0
EOF
